<?xml version="1.0" standalone="no"?>
<!DOCTYPE svg PUBLIC "-//W3C//DTD SVG 1.1//EN" "http://www.w3.org/Graphics/SVG/1.1/DTD/svg11.dtd" >
<svg xmlns="http://www.w3.org/2000/svg" xmlns:xlink="http://www.w3.org/1999/xlink" version="1.1">
<metadata>
Created by FontForge 20201107 at Tue Feb 27 07:21:06 2024
 By 
(c) 2010 Klim Type Foundry. All rights reserved.
</metadata>
<defs>
<font id="FoundersGrotesk-Bold" horiz-adv-x="1024" >
  <font-face 
    font-family="Founders Grotesk Bold"
    font-weight="700"
    font-stretch="normal"
    units-per-em="2048"
    panose-1="2 11 8 3 3 2 2 6 2 3"
    ascent="1290"
    descent="-758"
    x-height="913"
    cap-height="1290"
    bbox="-182 -446 2374 1962"
    underline-thickness="81"
    underline-position="-142"
    unicode-range="U+0020-FB04"
  />
<missing-glyph horiz-adv-x="1245" 
 />
    <glyph glyph-name="ff" unicode="ff" horiz-adv-x="1269" 
d="M727 684h-272v-684h-328v684h-131v229h131v37q0 165 86.5 254.5t245.5 89.5q83 0 138 -16t108 -49l-62 -205q-56 31 -104 31q-84 0 -84 -94v-48h272v15q0 183 100 285t267 102q129 0 214 -62t113 -176l-202 -63q-31 63 -89 63q-75 0 -75 -102v-62h231v-229h-231v-684
h-328v684z" />
    <glyph glyph-name="fi" unicode="fi" horiz-adv-x="1148" 
d="M127 684h-131v229h131v13q0 182 120.5 285.5t317.5 103.5q154 0 247 -59t142 -175l-241 -77q-36 73 -123 73q-62 0 -98.5 -39t-36.5 -110v-15h604v-913h-332v684h-272v-684h-328v684z" />
    <glyph glyph-name="fl" unicode="fl" horiz-adv-x="1148" 
d="M662 1272l-33 -232q-45 25 -90 25q-40 0 -62 -28t-22 -72v-52h176v-229h-176v-684h-328v684h-131v229h131v39q0 178 85.5 270.5t246.5 92.5q121 0 203 -43zM727 1290h332v-1290h-332v1290z" />
    <glyph glyph-name="ffi" unicode="ffi" horiz-adv-x="1748" 
d="M727 684h-272v-684h-328v684h-131v229h131v37q0 165 86.5 254.5t245.5 89.5q83 0 138 -16t108 -49l-62 -205q-56 31 -104 31q-84 0 -84 -94v-48h272v13q0 182 120.5 285.5t317.5 103.5q154 0 247 -59t142 -175l-241 -77q-36 73 -123 73q-62 0 -98.5 -39t-36.5 -110v-15
h604v-913h-332v684h-272v-684h-328v684z" />
    <glyph glyph-name="ffl" unicode="ffl" horiz-adv-x="1748" 
d="M727 684h-272v-684h-328v684h-131v229h131v37q0 165 86.5 254.5t245.5 89.5q83 0 138 -16t108 -49l-62 -205q-56 31 -104 31q-84 0 -84 -94v-48h272v39q0 178 85.5 270.5t246.5 92.5q121 0 203 -43l-33 -232q-45 25 -90 25q-40 0 -62 -28t-22 -72v-52h176v-229h-176v-684
h-328v684zM1327 1290h332v-1290h-332v1290z" />
    <glyph glyph-name="f_b" unicode="fb" horiz-adv-x="1806" 
d="M1059 463v-12q0 -100 50 -160t134 -60q94 0 141.5 61t47.5 165q0 102 -47.5 162.5t-141.5 60.5q-84 0 -134 -59t-50 -158zM1040 158l-57 -158h-256v1290h332v-534q35 85 112 133.5t189 48.5q130 0 223 -65t137.5 -172t44.5 -244q0 -138 -44.5 -245t-139 -172t-227.5 -65
q-109 0 -192 49.5t-122 133.5zM662 1272l-33 -232q-45 25 -90 25q-40 0 -62 -28t-22 -72v-52h176v-229h-176v-684h-328v684h-131v229h131v39q0 178 85.5 270.5t246.5 92.5q121 0 203 -43z" />
    <glyph glyph-name="f_f_b" unicode="ffb" horiz-adv-x="2406" 
d="M1659 463v-12q0 -100 50 -160t134 -60q94 0 141.5 61t47.5 165q0 102 -47.5 162.5t-141.5 60.5q-84 0 -134 -59t-50 -158zM1640 158l-57 -158h-256v1290h332v-534q35 85 112 133.5t189 48.5q130 0 223 -65t137.5 -172t44.5 -244q0 -138 -44.5 -245t-139 -172t-227.5 -65
q-109 0 -192 49.5t-122 133.5zM727 684h-272v-684h-328v684h-131v229h131v37q0 165 86.5 254.5t245.5 89.5q83 0 138 -16t108 -49l-62 -205q-56 31 -104 31q-84 0 -84 -94v-48h272v39q0 178 85.5 270.5t246.5 92.5q121 0 203 -43l-33 -232q-45 25 -90 25q-40 0 -62 -28
t-22 -72v-52h176v-229h-176v-684h-328v684z" />
    <glyph glyph-name="f_h" unicode="fh" horiz-adv-x="1763" 
d="M1059 449v-449h-332v1290h332v-514q37 76 115 119t180 43q90 0 156 -29.5t102.5 -82.5t53.5 -115.5t17 -137.5v-573h-331v485q0 97 -31 144t-104 47q-158 0 -158 -227zM662 1272l-33 -232q-45 25 -90 25q-40 0 -62 -28t-22 -72v-52h176v-229h-176v-684h-328v684h-131v229
h131v39q0 178 85.5 270.5t246.5 92.5q121 0 203 -43z" />
    <glyph glyph-name="f_f_h" unicode="ffh" horiz-adv-x="2363" 
d="M1659 449v-449h-332v1290h332v-514q37 76 115 119t180 43q73 0 130 -20t94 -53.5t61.5 -81t34.5 -99.5t10 -111v-573h-332v485q0 97 -31 144t-104 47q-158 0 -158 -227zM727 684h-272v-684h-328v684h-131v229h131v37q0 165 86.5 254.5t245.5 89.5q83 0 138 -16t108 -49
l-62 -205q-56 31 -104 31q-84 0 -84 -94v-48h272v39q0 178 85.5 270.5t246.5 92.5q121 0 203 -43l-33 -232q-45 25 -90 25q-40 0 -62 -28t-22 -72v-52h176v-229h-176v-684h-328v684z" />
    <glyph glyph-name="f_idieresis" unicode="f&#xef;" horiz-adv-x="1148" 
d="M127 684h-131v229h131v25q0 175 110 276t283 101q139 0 226.5 -61.5t115.5 -176.5l-223 -69q-12 32 -38 50.5t-58 18.5q-40 0 -64 -29t-24 -73v-62h604v-913h-332v684h-272v-684h-328v684zM940 999v291h291v-291h-291z" />
    <glyph glyph-name="f_f_idieresis" unicode="ff&#xef;" horiz-adv-x="1748" 
d="M727 684h-272v-684h-328v684h-131v229h131v37q0 165 86.5 254.5t245.5 89.5q83 0 138 -16t108 -49l-62 -205q-56 31 -104 31q-84 0 -84 -94v-48h272v25q0 175 110 276t283 101q139 0 226.5 -61.5t115.5 -176.5l-223 -69q-12 32 -38 50.5t-58 18.5q-40 0 -64 -29t-24 -73
v-62h604v-913h-332v684h-272v-684h-328v684zM1540 999v291h291v-291h-291z" />
    <glyph glyph-name="f_j" unicode="fj" horiz-adv-x="1148" 
d="M727 -14v698h-272v-684h-328v684h-131v229h131v13q0 182 120.5 285.5t317.5 103.5q154 0 247 -59t142 -175l-241 -77q-36 73 -123 73q-62 0 -98.5 -39t-36.5 -110v-15h604v-944q0 -164 -89 -242.5t-253 -78.5q-173 0 -262 65l51 201q63 -39 133 -39q88 0 88 111z" />
    <glyph glyph-name="f_f_j" unicode="ffj" horiz-adv-x="1748" 
d="M1327 -14v698h-272v-684h-328v684h-272v-684h-328v684h-131v229h131v37q0 165 86.5 254.5t245.5 89.5q83 0 138 -16t108 -49l-62 -205q-56 31 -104 31q-84 0 -84 -94v-48h272v13q0 182 120.5 285.5t317.5 103.5q154 0 247 -59t142 -175l-241 -77q-36 73 -123 73
q-62 0 -98.5 -39t-36.5 -110v-15h604v-944q0 -164 -89 -242.5t-253 -78.5q-173 0 -262 65l51 201q63 -39 133 -39q88 0 88 111z" />
    <glyph glyph-name="f_k" unicode="fk" horiz-adv-x="1757" 
d="M1059 289v-289h-332v1290h332v-692l313 315h389l-377 -358l390 -555h-373l-262 371zM662 1272l-33 -232q-45 25 -90 25q-40 0 -62 -28t-22 -72v-52h176v-229h-176v-684h-328v684h-131v229h131v39q0 178 85.5 270.5t246.5 92.5q121 0 203 -43z" />
    <glyph glyph-name="f_f_k" unicode="ffk" horiz-adv-x="2357" 
d="M1659 289v-289h-332v1290h332v-692l313 315h389l-376 -358l389 -555h-373l-262 371zM727 684h-272v-684h-328v684h-131v229h131v37q0 165 86.5 254.5t245.5 89.5q83 0 138 -16t108 -49l-62 -205q-56 31 -104 31q-84 0 -84 -94v-48h272v39q0 178 85.5 270.5t246.5 92.5
q121 0 203 -43l-33 -232q-45 25 -90 25q-40 0 -62 -28t-22 -72v-52h176v-229h-176v-684h-328v684z" />
    <glyph glyph-name=".notdef" horiz-adv-x="1245" 
 />
    <glyph glyph-name=".null" horiz-adv-x="0" 
 />
    <glyph glyph-name="nonmarkingreturn" horiz-adv-x="682" 
 />
    <glyph glyph-name="space" unicode=" " horiz-adv-x="368" 
 />
    <glyph glyph-name="exclam" unicode="!" horiz-adv-x="475" 
d="M61 0v352h353v-352h-353zM61 1290h353v-332l-70 -528h-213l-70 528v332z" />
    <glyph glyph-name="quotedbl" unicode="&#x22;" horiz-adv-x="751" 
d="M61 758v532h265v-532h-265zM426 758v532h264v-532h-264z" />
    <glyph glyph-name="numbersign" unicode="#" horiz-adv-x="1261" 
d="M1139 545l-43 -205h-203l-80 -340h-248l80 340h-176l-80 -340h-248l80 340h-180l43 205h186l49 200h-196l43 205h201l82 340h247l-82 -340h177l81 340h248l-82 -340h183l-43 -205h-187l-49 -200h197zM567 745l-49 -200h176l49 200h-176z" />
    <glyph glyph-name="dollar" unicode="$" horiz-adv-x="1241" 
d="M45 457l311 10q6 -85 55 -138t126 -75v248l-103 18q-167 28 -262.5 120.5t-95.5 254.5q0 182 123 291.5t338 124.5v157h163v-159q218 -22 335 -140.5t122 -314.5l-305 -6q-6 70 -46.5 119t-105.5 71v-245l91 -17q200 -35 296.5 -132t96.5 -257q0 -186 -134 -291.5
t-350 -118.5v-182h-163v187q-226 24 -359 147.5t-133 327.5zM856 365q0 49 -39 73t-117 37v-233q156 16 156 123zM401 926q0 -47 35 -70t101 -35v230q-136 -19 -136 -125z" />
    <glyph glyph-name="percent" unicode="%" horiz-adv-x="1628" 
d="M264 954q0 -93 28 -135.5t85 -42.5t84.5 42.5t27.5 135.5q0 94 -27.5 136.5t-84.5 42.5t-85 -43t-28 -136zM41 954q0 163 98.5 262t237.5 99t237.5 -99t98.5 -262t-98.5 -261.5t-237.5 -98.5t-237.5 98.5t-98.5 261.5zM1364 336q0 93 -28 135.5t-85 42.5t-84.5 -42.5
t-27.5 -135.5t27.5 -135.5t84.5 -42.5t85 42.5t28 135.5zM1268 1290l-680 -1290h-228l680 1290h228zM1587 336q0 -163 -98.5 -262t-237.5 -99t-237.5 99t-98.5 262t98.5 261.5t237.5 98.5t237.5 -98.5t98.5 -261.5z" />
    <glyph glyph-name="ampersand" unicode="&#x26;" horiz-adv-x="1388" 
d="M1020 672l299 -13q-65 -202 -197 -370q38 -37 67 -51.5t73 -14.5q38 0 106 15v-201q-68 -53 -211 -53q-138 0 -266 98q-177 -107 -381 -107q-139 0 -245.5 40t-170 124t-63.5 203q0 114 63 194.5t199 149.5q-62 68 -91.5 130t-29.5 147q0 109 61 190.5t157.5 121.5
t213.5 40q187 0 293.5 -88.5t106.5 -222.5q0 -124 -57.5 -201t-194.5 -150l178 -174q47 72 90 193zM528 229q89 0 174 37l-239 246q-101 -65 -101 -152q0 -66 45.5 -98.5t120.5 -32.5zM489 973q0 -28 16 -58.5t34 -51t47 -48.5q70 37 97.5 72.5t27.5 89.5q0 45 -28 74.5
t-79 29.5q-52 0 -83.5 -30.5t-31.5 -77.5z" />
    <glyph glyph-name="quotesingle" unicode="'" horiz-adv-x="407" 
d="M61 758v532h285v-532h-285z" />
    <glyph glyph-name="parenleft" unicode="(" horiz-adv-x="706" 
d="M92 590q0 208 78 410t215 352h301q-151 -172 -213.5 -361t-62.5 -401t62.5 -401t213.5 -361h-301q-137 150 -215 352t-78 410z" />
    <glyph glyph-name="parenright" unicode=")" horiz-adv-x="706" 
d="M614 590q0 -209 -77.5 -410.5t-214.5 -351.5h-302q151 173 214 361.5t63 400.5t-63 400.5t-214 361.5h302q137 -150 214.5 -351.5t77.5 -410.5z" />
    <glyph glyph-name="asterisk" unicode="*" horiz-adv-x="774" 
d="M20 950l62 193l205 -68v215h200v-213l203 66l64 -191l-203 -67l125 -172l-162 -119l-127 172l-125 -172l-164 117l125 174z" />
    <glyph glyph-name="plus" unicode="+" horiz-adv-x="1253" 
d="M489 1176h275v-402h403v-276h-403v-402h-275v402h-403v276h403v402z" />
    <glyph glyph-name="comma" unicode="," horiz-adv-x="475" 
d="M61 0v352h353v-329q0 -150 -90 -226.5t-263 -81.5v160q73 2 113.5 33.5t40.5 91.5h-154z" />
    <glyph glyph-name="hyphen" unicode="-" horiz-adv-x="737" 
d="M94 381v289h549v-289h-549z" />
    <glyph glyph-name="period" unicode="." horiz-adv-x="475" 
d="M61 0v352h353v-352h-353z" />
    <glyph glyph-name="slash" unicode="/" horiz-adv-x="755" 
d="M-41 -170l492 1520h305l-492 -1520h-305z" />
    <glyph glyph-name="zero" unicode="0" horiz-adv-x="1265" 
d="M1217 645q0 -317 -157.5 -493.5t-426.5 -176.5q-268 0 -426 176.5t-158 493.5t158 493.5t426 176.5q269 0 426.5 -176.5t157.5 -493.5zM850 645q0 203 -50 296t-167 93q-115 0 -165 -93t-50 -296t50 -296t165 -93q117 0 167 93t50 296z" />
    <glyph glyph-name="one" unicode="1" horiz-adv-x="727" 
d="M23 864v230q133 0 207 46.5t110 149.5h272v-1290h-348v864h-241z" />
    <glyph glyph-name="two" unicode="2" horiz-adv-x="1067" 
d="M551 289h498v-289h-1000v250l357 280q156 125 209 192.5t53 156.5q0 64 -33.5 102.5t-106.5 38.5q-75 0 -111 -51t-36 -135q0 -60 14 -107l-340 10q-16 82 -16 121q0 206 139 331.5t363 125.5q230 0 360.5 -115.5t130.5 -300.5q0 -66 -14.5 -122t-37.5 -99t-67.5 -90.5
t-87.5 -84t-114 -91.5z" />
    <glyph glyph-name="three" unicode="3" horiz-adv-x="1110" 
d="M715 379q0 68 -47.5 103.5t-124.5 35.5q-59 0 -94 -4v248q20 -4 98 -4q61 0 104 35.5t43 99.5q0 66 -37 103.5t-108 37.5q-82 0 -126 -59t-44 -154l-334 15q0 206 139 342.5t375 136.5q225 0 352 -105t127 -280q0 -112 -68 -188t-163 -89q126 -22 195 -101.5t69 -199.5
q0 -178 -138 -277.5t-368 -99.5q-252 0 -394 126t-142 343l342 -10q3 -90 54 -134t140 -44q64 0 107 32t43 91z" />
    <glyph glyph-name="four" unicode="4" horiz-adv-x="1204" 
d="M1010 1290v-725h166v-293h-166v-272h-342v272h-631v318l555 700h418zM668 987l-334 -422h334v422z" />
    <glyph glyph-name="five" unicode="5" horiz-adv-x="1083" 
d="M954 1290v-303h-553q-5 -69 -26 -172q82 64 227 64q216 0 332.5 -124.5t116.5 -322.5q0 -211 -138.5 -334t-357.5 -123q-254 0 -387 126.5t-125 351.5l334 -23q1 -83 48.5 -128.5t129.5 -45.5q79 0 127.5 47t48.5 129q0 79 -45.5 132.5t-128.5 53.5q-107 0 -162 -81
l-334 24q28 157 54 370t30 359h809z" />
    <glyph glyph-name="six" unicode="6" horiz-adv-x="1150" 
d="M608 1038q-105 0 -167.5 -86t-71.5 -231q45 56 121 87.5t169 31.5q209 0 330 -115.5t121 -302.5q0 -206 -140 -326.5t-364 -120.5q-268 0 -412.5 176.5t-144.5 487.5q0 199 62 349.5t191 238.5t312 88q210 0 337.5 -105.5t146.5 -298.5l-324 -6q-7 65 -50 99t-116 34z
M424 414q0 -74 47 -120t129 -46q85 0 132.5 45.5t47.5 120.5q0 78 -47.5 124t-132.5 46q-82 0 -129 -46.5t-47 -123.5z" />
    <glyph glyph-name="seven" unicode="7" horiz-adv-x="1046" 
d="M639 979h-608v311h985v-274q-56 -55 -101 -110t-79 -105t-60.5 -108t-44 -105t-30 -110t-19 -110t-10.5 -118t-5 -120.5t-1 -129.5h-381q5 321 84 545t270 434z" />
    <glyph glyph-name="eight" unicode="8" horiz-adv-x="1144" 
d="M573 1063q-71 0 -112 -37.5t-41 -105.5q0 -65 41 -100.5t112 -35.5q73 0 115.5 35.5t42.5 100.5q0 68 -42.5 105.5t-115.5 37.5zM573 545q-87 0 -135.5 -40t-48.5 -114t48.5 -114.5t135.5 -40.5t135 40t48 115q0 74 -48 114t-135 40zM573 -25q-252 0 -392 101t-140 276
q0 119 65 203.5t173 112.5q-100 41 -149.5 110t-49.5 178q0 165 136 262t357 97q220 0 356 -97t136 -262q0 -109 -49.5 -178t-149.5 -110q108 -28 173 -112.5t65 -203.5q0 -175 -140 -276t-391 -101z" />
    <glyph glyph-name="nine" unicode="9" horiz-adv-x="1150" 
d="M543 252q105 0 167.5 86t71.5 231q-44 -56 -120.5 -87t-169.5 -31q-209 0 -330 115t-121 302q0 206 140 326.5t364 120.5q268 0 412.5 -176.5t144.5 -487.5q0 -199 -62 -349.5t-191 -238.5t-312 -88q-210 0 -337.5 105.5t-146.5 298.5l324 6q7 -65 50 -99t116 -34z
M727 877q0 73 -47 119t-129 46q-85 0 -132.5 -45t-47.5 -120q0 -78 47.5 -124t132.5 -46q82 0 129 46.5t47 123.5z" />
    <glyph glyph-name="colon" unicode=":" horiz-adv-x="475" 
d="M61 0v352h353v-352h-353zM61 545v352h353v-352h-353z" />
    <glyph glyph-name="semicolon" unicode=";" horiz-adv-x="475" 
d="M61 0v352h353v-329q0 -150 -90 -226.5t-263 -81.5v160q73 2 113.5 33.5t40.5 91.5h-154zM61 545v352h353v-352h-353z" />
    <glyph glyph-name="less" unicode="&#x3c;" horiz-adv-x="968" 
d="M63 442v377l824 348v-315l-574 -221l574 -221v-316z" />
    <glyph glyph-name="equal" unicode="=" horiz-adv-x="1298" 
d="M109 295v250h1081v-250h-1081zM109 737v250h1081v-250h-1081z" />
    <glyph glyph-name="greater" unicode="&#x3e;" horiz-adv-x="968" 
d="M905 819v-377l-823 -348v316l571 221l-571 221v315z" />
    <glyph glyph-name="question" unicode="?" horiz-adv-x="1073" 
d="M709 430h-322q6 159 135 262q42 34 59 49t42.5 43t35 55t9.5 60q0 52 -33.5 86.5t-95.5 34.5q-83 0 -120.5 -50.5t-37.5 -135.5q0 -60 14 -107l-340 10q-16 82 -16 121q0 206 139 331.5t363 125.5q228 0 359.5 -112.5t131.5 -284.5q0 -60 -16.5 -112t-50 -94.5t-68 -74
t-84.5 -68.5q-52 -38 -76.5 -70t-27.5 -69zM371 0v352h352v-352h-352z" />
    <glyph glyph-name="at" unicode="@" horiz-adv-x="1593" 
d="M1163 227q193 0 193 334q0 202 -123 313t-359 111q-286 0 -454 -170t-168 -459q0 -232 142 -354.5t382 -122.5q234 0 422 92l49 -147q-195 -117 -473 -117q-212 0 -374.5 74.5t-255.5 222.5t-93 352q0 229 100.5 411.5t289 288t433.5 105.5q308 0 490 -168t182 -432
q0 -121 -37.5 -217.5t-100 -155t-140 -88.5t-162.5 -30q-181 0 -240 131q-38 -68 -88.5 -99.5t-126.5 -31.5q-123 0 -195.5 78t-72.5 217q0 184 100 311t258 127q77 0 128.5 -30t74.5 -81l27 94h256l-115 -458q-25 -101 51 -101zM866 420l8 39q15 82 -2 122t-73 40
q-60 0 -100 -75t-40 -163q0 -121 80 -121q45 0 79 37.5t48 120.5z" />
    <glyph glyph-name="A" unicode="A" horiz-adv-x="1417" 
d="M514 1290h389l514 -1290h-370l-97 250h-504l-96 -250h-350zM694 891l-147 -381h303l-148 381h-8z" />
    <glyph glyph-name="B" unicode="B" horiz-adv-x="1296" 
d="M1247 354q0 -167 -125.5 -260.5t-351.5 -93.5h-672v1290h629q242 0 361.5 -94t119.5 -262q0 -106 -62.5 -176t-166.5 -88q121 -25 194.5 -104.5t73.5 -211.5zM713 518h-277v-239h279q88 0 131 31.5t43 86.5t-43.5 88t-132.5 33zM436 1014v-236h246q84 0 125 32.5t41 82.5
q0 55 -40.5 88t-125.5 33h-246z" />
    <glyph glyph-name="C" unicode="C" horiz-adv-x="1370" 
d="M41 645q0 195 86.5 348.5t237 237.5t337.5 84q144 0 261 -44t194 -122.5t121.5 -182t54.5 -225.5l-334 -12q-8 57 -27.5 104t-53.5 87.5t-90 63t-128 22.5q-141 0 -221 -97.5t-80 -263.5t80 -263t221 -97q73 0 128.5 22.5t89.5 62.5t53.5 87t27.5 104l334 -14
q-10 -122 -54.5 -225.5t-121.5 -181t-194 -121.5t-261 -44q-187 0 -337.5 84t-237 237.5t-86.5 348.5z" />
    <glyph glyph-name="D" unicode="D" horiz-adv-x="1341" 
d="M446 274h138q169 0 263.5 97.5t94.5 275.5q0 175 -94.5 272t-263.5 97h-138v-742zM98 0v1290h510q322 0 507 -171.5t185 -473.5t-185 -473.5t-507 -171.5h-510z" />
    <glyph glyph-name="E" unicode="E" horiz-adv-x="1171" 
d="M1114 287v-287h-1016v1290h998v-286h-656v-211h506v-283h-506v-223h674z" />
    <glyph glyph-name="F" unicode="F" horiz-adv-x="1124" 
d="M446 0h-348v1290h975v-286h-627v-248h472v-283h-472v-473z" />
    <glyph glyph-name="G" unicode="G" horiz-adv-x="1433" 
d="M668 -25q-177 0 -319.5 83.5t-225 237t-82.5 349.5q0 194 88.5 348t240 238t337.5 84q280 0 443 -141.5t185 -387.5l-338 -12q-14 108 -87 170t-195 62q-150 0 -233 -97t-83 -264q0 -172 89 -273.5t253 -101.5q89 0 163.5 38.5t111.5 111.5h-285v250h615v-670h-304v143
q-102 -168 -374 -168z" />
    <glyph glyph-name="H" unicode="H" horiz-adv-x="1406" 
d="M446 0h-348v1290h348v-497h515v497h348v-1290h-348v510h-515v-510z" />
    <glyph glyph-name="I" unicode="I" horiz-adv-x="544" 
d="M98 1290h348v-1290h-348v1290z" />
    <glyph glyph-name="J" unicode="J" horiz-adv-x="1153" 
d="M725 1290h348v-821q0 -249 -141 -371.5t-383 -122.5q-251 0 -391.5 139.5t-141.5 395.5l336 12q12 -252 195 -252q93 0 135.5 55.5t42.5 174.5v790z" />
    <glyph glyph-name="K" unicode="K" horiz-adv-x="1312" 
d="M1333 0h-415l-359 514l-113 -123v-391h-348v1290h348v-522l463 522h400l-498 -549z" />
    <glyph glyph-name="L" unicode="L" horiz-adv-x="1136" 
d="M98 1290h348v-1003h639v-287h-987v1290z" />
    <glyph glyph-name="M" unicode="M" horiz-adv-x="1640" 
d="M954 0h-297l-231 907h-8v-907h-320v1290h539l190 -811h7l182 811h526v-1290h-348v907h-8z" />
    <glyph glyph-name="N" unicode="N" horiz-adv-x="1351" 
d="M430 1290l504 -715v715h319v-1290h-278l-557 764v-764h-320v1290h332z" />
    <glyph glyph-name="O" unicode="O" horiz-adv-x="1421" 
d="M1380 645q0 -194 -89 -348t-241.5 -238t-338.5 -84q-187 0 -339.5 84t-241.5 238t-89 348t89 348t241.5 238t339.5 84q186 0 338.5 -84t241.5 -238t89 -348zM1022 645q0 165 -84.5 264t-226.5 99t-227 -99t-85 -264t85 -263.5t227 -98.5t226.5 98.5t84.5 263.5z" />
    <glyph glyph-name="P" unicode="P" horiz-adv-x="1214" 
d="M444 682h205q115 0 165 40t50 124t-50.5 125t-164.5 41h-205v-330zM444 403v-403h-346v1290h568q255 0 394.5 -114.5t139.5 -327.5q0 -214 -139.5 -329.5t-394.5 -115.5h-222z" />
    <glyph glyph-name="Q" unicode="Q" horiz-adv-x="1421" 
d="M1380 645q0 -270 -174 -457l107 -125l-189 -147l-108 129q-143 -70 -305 -70q-187 0 -339.5 84t-241.5 238t-89 348t89 348t241.5 238t339.5 84q186 0 338.5 -84t241.5 -238t89 -348zM1026 645q0 164 -86 263.5t-229 99.5q-142 0 -227 -99t-85 -264t85 -267t227 -102
q57 0 100 11l-123 147l182 152l119 -144q37 81 37 203z" />
    <glyph glyph-name="R" unicode="R" horiz-adv-x="1304" 
d="M1268 0h-353q-38 49 -53 248q-7 105 -51.5 142.5t-138.5 37.5h-232v-428h-342v1290h652q246 0 372.5 -108t126.5 -301q0 -138 -76.5 -227.5t-197.5 -104.5q102 -21 158.5 -81.5t66.5 -170.5q14 -155 25.5 -209.5t42.5 -87.5zM440 696h248q115 0 168 35t53 121
q0 160 -221 160h-248v-316z" />
    <glyph glyph-name="S" unicode="S" horiz-adv-x="1241" 
d="M41 457l319 10q6 -77 47 -127.5t99.5 -70t134.5 -19.5q91 0 145 30.5t54 84.5q0 19 -5 33t-19.5 24.5t-25 17t-37 13t-39.5 9.5t-48 9l-236 41q-167 31 -262.5 126t-95.5 257q0 196 141.5 308t384.5 112q264 0 407 -121.5t148 -339.5l-319 -6q-7 96 -71.5 145t-168.5 49
q-86 0 -133 -31t-47 -85q0 -42 32 -64t97 -33l243 -43q394 -69 394 -399q0 -133 -73 -227.5t-192.5 -139.5t-273.5 -45q-269 0 -434.5 127t-165.5 355z" />
    <glyph glyph-name="T" unicode="T" horiz-adv-x="1339" 
d="M840 0h-346v1004h-443v286h1237v-286h-448v-1004z" />
    <glyph glyph-name="U" unicode="U" horiz-adv-x="1351" 
d="M676 -25q-127 0 -232 31.5t-185 95t-124.5 168t-44.5 242.5v778h346v-721q0 -153 55 -227t185 -74q131 0 185 73.5t54 227.5v721h349v-778q0 -138 -44.5 -242.5t-125.5 -168t-186 -95t-232 -31.5z" />
    <glyph glyph-name="V" unicode="V" horiz-adv-x="1357" 
d="M862 0h-366l-496 1290h365l319 -858h8l320 858h346z" />
    <glyph glyph-name="W" unicode="W" horiz-adv-x="1849" 
d="M1087 1290l213 -809h9l204 809h336l-338 -1290h-370l-215 815h-8l-216 -815h-364l-338 1290h348l205 -809h8l213 809h313z" />
    <glyph glyph-name="X" unicode="X" horiz-adv-x="1384" 
d="M1348 1290l-459 -610l495 -680h-407l-299 412l-295 -412h-383l496 659l-459 631h407l261 -362l260 362h383z" />
    <glyph glyph-name="Y" unicode="Y" horiz-adv-x="1329" 
d="M678 825l276 465h375l-495 -801v-489h-338v489l-496 801h387z" />
    <glyph glyph-name="Z" unicode="Z" horiz-adv-x="1216" 
d="M500 287h655v-287h-1094v264l635 740h-628v286h1071v-270z" />
    <glyph glyph-name="bracketleft" unicode="[" horiz-adv-x="663" 
d="M438 1124v-1069h185v-227h-480v1524h480v-228h-185z" />
    <glyph glyph-name="backslash" unicode="\" horiz-adv-x="755" 
d="M305 1350l492 -1520h-305l-492 1520h305z" />
    <glyph glyph-name="bracketright" unicode="]" horiz-adv-x="663" 
d="M225 55v1069h-184v228h479v-1524h-479v227h184z" />
    <glyph glyph-name="asciicircum" unicode="^" horiz-adv-x="835" 
d="M242 1290h352l221 -430h-297l-100 223l-101 -223h-297z" />
    <glyph glyph-name="underscore" unicode="_" horiz-adv-x="780" 
d="M41 -309v252h698v-252h-698z" />
    <glyph glyph-name="grave" unicode="`" 
d="M729 999h-237l-199 291h325z" />
    <glyph glyph-name="a" unicode="a" horiz-adv-x="1079" 
d="M618 381v14l-135 -24q-64 -13 -95.5 -36t-31.5 -65q0 -35 25.5 -56t67.5 -21q73 0 121 50.5t48 137.5zM944 580v-312q0 -67 55 -67q36 0 74 14v-176q-84 -59 -207 -59q-86 0 -147 42t-84 119q-81 -161 -303 -161q-135 0 -215 65.5t-80 181.5q0 126 83 192.5t242 94.5
l256 43v14q0 121 -114 121q-102 0 -125 -114l-307 20q23 156 138 248t314 92q192 0 306 -88t114 -270z" />
    <glyph glyph-name="b" unicode="b" horiz-adv-x="1169" 
d="M422 463v-12q0 -100 50 -160t134 -60q94 0 141.5 61t47.5 165q0 102 -47.5 162.5t-141.5 60.5q-84 0 -134 -59t-50 -158zM403 158l-57 -158h-256v1290h332v-534q35 85 112 133.5t189 48.5q130 0 223 -65t137.5 -172t44.5 -244q0 -138 -44.5 -245t-139 -172t-227.5 -65
q-109 0 -192 49.5t-122 133.5z" />
    <glyph glyph-name="c" unicode="c" horiz-adv-x="1028" 
d="M41 457q0 215 140.5 348t359.5 133q197 0 314.5 -112t135.5 -285l-272 -19q-17 85 -59.5 125.5t-114.5 40.5q-79 0 -124.5 -56.5t-45.5 -174.5t45.5 -175t124.5 -57q140 0 174 168l272 -20q-18 -174 -135.5 -286t-314.5 -112q-219 0 -359.5 133t-140.5 349z" />
    <glyph glyph-name="d" unicode="d" horiz-adv-x="1167" 
d="M745 451v12q0 98 -49.5 157.5t-132.5 59.5q-95 0 -141.5 -60t-46.5 -163q0 -104 46.5 -165t141.5 -61q83 0 132.5 60t49.5 160zM745 0v156q-33 -83 -111 -132t-188 -49q-131 0 -224 65t-137 172t-44 245q0 137 44 244t137 172t224 65q111 0 188.5 -49t110.5 -133v534h332
v-1290h-332z" />
    <glyph glyph-name="e" unicode="e" horiz-adv-x="1050" 
d="M733 326l266 -25q-35 -156 -154.5 -241t-301.5 -85q-223 0 -362.5 126t-139.5 341q0 216 141.5 356t356.5 140q147 0 255 -63t160 -165.5t52 -228.5v-92h-641q6 -81 58.5 -123.5t131.5 -42.5q134 0 178 103zM369 549h321q-3 65 -44 108t-111 43q-75 0 -115.5 -41
t-50.5 -110z" />
    <glyph glyph-name="f" unicode="f" horiz-adv-x="669" 
d="M127 684h-131v229h131v39q0 175 99.5 269t267.5 94q129 0 214 -62t113 -176l-203 -63q-31 63 -88 63q-75 0 -75 -102v-62h231v-229h-231v-684h-328v684z" />
    <glyph glyph-name="g" unicode="g" horiz-adv-x="1058" 
d="M952 625q0 -143 -123.5 -227.5t-320.5 -84.5q-110 0 -199 27q-18 -15 -18 -43q0 -25 19.5 -40t58.5 -15h379q151 0 231 -71.5t80 -190.5q0 -109 -83 -186t-210 -111.5t-281 -34.5q-485 0 -485 223q0 60 49 103t125 49q-60 20 -95.5 69t-35.5 109q0 65 41 114.5t115 77.5
q-131 85 -131 232q0 144 122.5 228.5t317.5 84.5q170 0 293 -74q43 60 113.5 101t142.5 41v-250q-65 0 -133 -15q28 -54 28 -116zM272 -96q0 -84 215 -84q119 0 193 23t74 63q0 53 -84 53h-336q-28 0 -45 -14.5t-17 -40.5zM608 625q0 59 -27 95t-69 36t-69 -36t-27 -95
q0 -60 27 -96.5t69 -36.5t69 36.5t27 96.5z" />
    <glyph glyph-name="h" unicode="h" horiz-adv-x="1126" 
d="M422 449v-449h-332v1290h332v-514q37 76 115 119t180 43q73 0 130 -20t94 -53.5t61.5 -81t34.5 -99.5t10 -111v-573h-332v485q0 97 -31 144t-104 47q-158 0 -158 -227z" />
    <glyph glyph-name="i" unicode="i" horiz-adv-x="512" 
d="M90 913h332v-913h-332v913zM88 999v291h336v-291h-336z" />
    <glyph glyph-name="j" unicode="j" horiz-adv-x="512" 
d="M422 913v-944q0 -164 -89 -242.5t-253 -78.5q-173 0 -262 65l51 201q63 -39 133 -39q88 0 88 111v927h332zM88 999v291h336v-291h-336z" />
    <glyph glyph-name="k" unicode="k" horiz-adv-x="1120" 
d="M422 289v-289h-332v1290h332v-692l313 315h389l-376 -358l389 -555h-373l-262 371z" />
    <glyph glyph-name="l" unicode="l" horiz-adv-x="512" 
d="M90 1290h332v-1290h-332v1290z" />
    <glyph glyph-name="m" unicode="m" horiz-adv-x="1708" 
d="M991 758q39 80 120 130t192 50q91 0 156.5 -29.5t101 -82.5t51.5 -115t16 -138v-573h-332v485q0 100 -25.5 145.5t-96.5 45.5q-79 0 -113.5 -59t-34.5 -168v-449h-332v485q0 100 -26.5 145.5t-98.5 45.5q-147 0 -147 -227v-449h-332v913h332v-137q37 76 110.5 119
t174.5 43q218 0 284 -180z" />
    <glyph glyph-name="n" unicode="n" horiz-adv-x="1126" 
d="M422 449v-449h-332v913h332v-137q37 76 115 119t180 43q73 0 130 -20t94 -53.5t61.5 -81t34.5 -99.5t10 -111v-573h-332v485q0 97 -31 144t-104 47q-158 0 -158 -227z" />
    <glyph glyph-name="o" unicode="o" horiz-adv-x="1081" 
d="M375 457q0 -108 41 -170t125 -62q83 0 124.5 62.5t41.5 169.5t-41.5 169t-124.5 62q-84 0 -125 -61.5t-41 -169.5zM1040 457q0 -214 -138.5 -348t-360.5 -134q-224 0 -362 134t-138 348q0 213 138.5 347t361.5 134q222 0 360.5 -134t138.5 -347z" />
    <glyph glyph-name="p" unicode="p" horiz-adv-x="1169" 
d="M422 463v-12q0 -100 50 -160t134 -60q94 0 141.5 61t47.5 165q0 102 -47.5 162.5t-141.5 60.5q-84 0 -134 -59t-50 -158zM422 156v-484h-332v1241h332v-157q35 85 112 133.5t189 48.5q130 0 223 -65t137.5 -172t44.5 -244q0 -138 -44.5 -245t-137.5 -172t-223 -65
q-111 0 -188.5 49t-112.5 132z" />
    <glyph glyph-name="q" unicode="q" horiz-adv-x="1167" 
d="M745 451v12q0 98 -49.5 157.5t-132.5 59.5q-95 0 -141.5 -60t-46.5 -163q0 -104 46.5 -165t141.5 -61q83 0 132.5 60t49.5 160zM745 -328v484q-33 -83 -111 -132t-188 -49q-131 0 -224 65t-137 172t-44 245q0 137 44 244t137 172t224 65q111 0 188.5 -49t110.5 -133v157
h332v-1241h-332z" />
    <glyph glyph-name="r" unicode="r" horiz-adv-x="811" 
d="M799 903l-21 -313q-65 39 -157 39q-97 0 -148 -50t-51 -161v-418h-332v913h332v-161q26 80 94 133t156 53q82 0 127 -35z" />
    <glyph glyph-name="s" unicode="s" horiz-adv-x="944" 
d="M25 297l288 4q9 -57 54 -88t120 -31q54 0 83.5 17.5t29.5 46.5q0 56 -84 69l-135 21q-174 28 -256 93.5t-82 199.5q0 137 112.5 223t301.5 86q196 0 310 -81.5t128 -225.5l-272 -8q-9 50 -53 78t-119 28q-47 0 -74 -17t-27 -48q0 -22 15.5 -35.5t40.5 -16.5l178 -30
q323 -52 323 -303q0 -144 -113.5 -224t-310.5 -80t-321 81t-137 241z" />
    <glyph glyph-name="t" unicode="t" horiz-adv-x="733" 
d="M123 254v430h-123v205l68 10q65 10 94.5 44.5t48.5 103.5l31 118h209v-252h237v-229h-237v-334q0 -57 26 -82.5t78 -25.5q69 0 141 30v-215q-113 -82 -274 -82q-61 0 -112 14t-94.5 44.5t-68 86.5t-24.5 134z" />
    <glyph glyph-name="u" unicode="u" horiz-adv-x="1114" 
d="M692 465v448h332v-913h-332v137q-37 -77 -110.5 -119.5t-175.5 -42.5q-90 0 -155.5 29.5t-101.5 81.5t-52.5 114.5t-16.5 137.5v575h332v-487q0 -96 31 -143t104 -47q145 0 145 229z" />
    <glyph glyph-name="v" unicode="v" horiz-adv-x="1067" 
d="M731 0h-395l-340 913h348l199 -567h8l199 567h321z" />
    <glyph glyph-name="w" unicode="w" horiz-adv-x="1495" 
d="M895 913l133 -518h8l164 518h299l-289 -913h-325l-133 516h-9l-133 -516h-325l-289 913h330l163 -518h9l133 518h264z" />
    <glyph glyph-name="x" unicode="x" horiz-adv-x="1064" 
d="M1040 913l-331 -434l360 -479h-367l-182 248l-182 -248h-342l358 465l-329 448h366l152 -217l155 217h342z" />
    <glyph glyph-name="y" unicode="y" horiz-adv-x="1083" 
d="M563 -328h-325l131 316l-373 925h348l203 -534h8l207 534h325z" />
    <glyph glyph-name="z" unicode="z" horiz-adv-x="925" 
d="M459 674h-398v239h801v-225l-411 -448h421v-240h-819v227z" />
    <glyph glyph-name="braceleft" unicode="{" horiz-adv-x="702" 
d="M72 477v225h51q61 0 78.5 30.5t17.5 119.5v217q0 139 73 211t200 72h170v-228h-82q-41 0 -52.5 -19t-11.5 -56v-218q0 -112 -40.5 -169t-135.5 -72q95 -15 135.5 -72.5t40.5 -171.5v-215q0 -18 1.5 -29t7.5 -23t19.5 -18t35.5 -6h82v-227h-170q-127 0 -200 72t-73 211
v217q0 89 -17.5 119t-78.5 30h-51z" />
    <glyph glyph-name="bar" unicode="|" horiz-adv-x="485" 
d="M98 -170v1520h289v-1520h-289z" />
    <glyph glyph-name="braceright" unicode="}" horiz-adv-x="702" 
d="M631 702v-225h-51q-61 0 -79 -30.5t-18 -118.5v-217q0 -139 -72.5 -211t-199.5 -72h-170v227h82q29 0 43.5 12t17 25.5t2.5 38.5v215q0 114 40.5 171.5t135.5 72.5q-95 15 -135.5 72t-40.5 169v218q0 18 -1.5 28.5t-7 23t-19 18t-35.5 5.5h-82v228h170q127 0 199.5 -72
t72.5 -211v-217q0 -88 18 -119t79 -31h51z" />
    <glyph glyph-name="asciitilde" unicode="~" horiz-adv-x="827" 
d="M240 418h-168q0 147 52.5 236t149.5 89q54 0 129.5 -42t110.5 -42q66 0 74 78h168q0 -149 -53 -238t-150 -89q-54 0 -129.5 42t-110.5 42q-65 0 -73 -76z" />
    <glyph glyph-name="exclamdown" unicode="&#xa1;" horiz-adv-x="475" 
d="M61 709v352h353v-352h-353zM414 -229h-353v331l70 529h213l70 -529v-331z" />
    <glyph glyph-name="cent" unicode="&#xa2;" horiz-adv-x="1064" 
d="M483 -190v170q-200 19 -321 147.5t-121 329.5q0 200 121.5 329t320.5 148v168h172v-174q161 -28 259 -134.5t114 -252.5l-268 -15q-23 111 -105 154v-447q83 47 105 156l268 -16q-15 -149 -113 -254.5t-260 -132.5v-176h-172zM362 457q0 -192 121 -236v471
q-121 -41 -121 -235z" />
    <glyph glyph-name="sterling" unicode="&#xa3;" horiz-adv-x="1261" 
d="M567 901q0 -85 41 -172h242v-186h-170q8 -54 8 -88q0 -72 -16 -144q75 -30 141 -30q93 0 128.5 35.5t35.5 134.5l237 -13q46 -463 -317 -463q-176 0 -342 111q-108 -111 -272 -111q-117 0 -190 69t-73 185q0 108 73 174t188 66q45 0 112 -18q-7 42 -28 92h-250v186h133
q-47 79 -47 182q0 183 132 293.5t337 110.5q238 0 365.5 -128.5t127.5 -350.5l-291 -15q-5 104 -50 162.5t-124 58.5q-63 0 -97 -37.5t-34 -103.5zM287 170q58 0 86 66q-58 45 -92 45q-60 0 -60 -56q0 -25 19 -40t47 -15z" />
    <glyph glyph-name="yen" unicode="&#xa5;" horiz-adv-x="1329" 
d="M139 510v203h228l-367 577h387l291 -465l276 465h375l-366 -577h227v-203h-356v-100h356v-203h-356v-207h-338v207h-357v203h357v100h-357z" />
    <glyph glyph-name="section" unicode="&#xa7;" horiz-adv-x="1064" 
d="M1024 506q0 -68 -35 -131.5t-92 -108.5q47 -63 47 -149q0 -137 -112.5 -223.5t-301.5 -86.5q-196 0 -310 82t-128 226l273 8q9 -51 53 -79t119 -28q42 0 71 22t29 60q0 50 -84 84l-211 82q-152 60 -226.5 142t-74.5 210q0 68 35 132t92 106q-47 62 -47 152
q0 137 112.5 223t301.5 86q196 0 310 -81.5t128 -225.5l-273 -9q-9 51 -53 79t-119 28q-42 0 -71 -22t-29 -60q0 -50 84 -84l211 -82q152 -60 226.5 -142t74.5 -210zM393 698q-15 5 -35 17q-28 -28 -28 -66q0 -37 17 -58.5t69 -45.5l256 -121q16 -10 35 -16q28 28 28 65
t-17 59t-69 46z" />
    <glyph glyph-name="dieresis" unicode="&#xa8;" 
d="M174 999v291h291v-291h-291zM559 999v291h291v-291h-291z" />
    <glyph glyph-name="copyright" unicode="&#xa9;" horiz-adv-x="1482" 
d="M72 645q0 190 90 344.5t243 240t336 85.5t336 -85.5t243.5 -240t90.5 -344.5t-90.5 -344.5t-243.5 -240t-336 -85.5t-336 85.5t-243 240t-90 344.5zM336 645q0 184 116 300t293 116q176 0 276.5 -99t113.5 -257l-209 -7q-10 70 -52 115t-122 45q-85 0 -132 -57.5
t-47 -155.5q0 -95 47 -152t132 -57q80 0 122 45t52 115l209 -10q-13 -158 -113.5 -256.5t-276.5 -98.5q-177 0 -293 115.5t-116 298.5zM174 645q0 -121 45 -228t121.5 -182t181 -118t219.5 -43q154 0 284 73t207 205t77 293t-77 293t-207 205.5t-284 73.5t-284 -73.5
t-206.5 -205.5t-76.5 -293z" />
    <glyph glyph-name="ordfeminine" unicode="&#xaa;" horiz-adv-x="884" 
d="M500 877v12l-105 -23q-48 -11 -72 -28.5t-24 -49.5q0 -27 19.5 -43t52.5 -16q55 0 92 40.5t37 107.5zM772 1036v-245q0 -56 43 -56q22 0 59 13v-148q-68 -47 -169 -47q-70 0 -120.5 33.5t-70.5 95.5q-64 -129 -242 -129q-108 0 -172.5 53t-64.5 146q0 102 65.5 153.5
t194.5 73.5l205 37v12q0 92 -86 92q-77 0 -97 -88l-256 17q19 128 113 202t256 74q157 0 249.5 -71t92.5 -218z" />
    <glyph glyph-name="guillemotleft" unicode="&#xab;" horiz-adv-x="991" 
d="M61 315v295l396 256v-278l-197 -125l197 -125v-279zM535 315v295l395 256v-278l-197 -125l197 -125v-279z" />
    <glyph glyph-name="registered" unicode="&#xae;" horiz-adv-x="843" 
d="M625 725h-123q-14 17 -19 70q-3 34 -16.5 44.5t-44.5 10.5h-47v-125h-121v408h207q77 0 117 -34t40 -95q0 -43 -24.5 -72t-63.5 -35q66 -12 72 -78q5 -48 9 -65t14 -29zM375 944h51q66 0 66 45q0 47 -66 47h-51v-92zM803 930q0 -165 -111 -275t-270 -110t-270 110
t-111 275t111 275t270 110t270 -110t111 -275zM733 930q0 138 -89.5 228.5t-221.5 90.5t-221.5 -90.5t-89.5 -228.5t89.5 -229t221.5 -91t221.5 91t89.5 229z" />
    <glyph glyph-name="macron" unicode="&#xaf;" 
d="M229 1008v221h564v-221h-564z" />
    <glyph glyph-name="degree" unicode="&#xb0;" horiz-adv-x="757" 
d="M254 1010q0 -54 34 -89.5t91 -35.5t91 35.5t34 89.5t-34 89.5t-91 35.5t-91 -35.5t-34 -89.5zM61 1010q0 129 91.5 217t226.5 88t226 -88t91 -217t-91 -217t-226 -88t-226.5 88t-91.5 217z" />
    <glyph glyph-name="plusminus" unicode="&#xb1;" horiz-adv-x="1288" 
d="M506 1262h274v-285h379v-275h-379v-284h-274v284h-377v275h377v285zM129 33v272h1030v-272h-1030z" />
    <glyph glyph-name="twosuperior" unicode="&#xb2;" horiz-adv-x="706" 
d="M403 674h285v-211h-649v188l227 172q95 75 123.5 111t28.5 86q0 70 -68 70q-71 0 -71 -99q0 -35 8 -67l-248 8q-10 68 -10 78q0 133 91 215t238 82q150 0 238 -76t88 -195q0 -52 -10 -90.5t-37.5 -74t-58 -62.5t-89.5 -72z" />
    <glyph glyph-name="threesuperior" unicode="&#xb3;" horiz-adv-x="737" 
d="M446 711q0 35 -25 53t-65 18q-44 0 -55 -2v178q12 -2 57 -2q31 0 52.5 19.5t21.5 52.5q0 72 -70 72q-42 0 -64 -33t-22 -82l-243 10q0 132 91.5 222t246.5 90q147 0 230 -69t83 -183q0 -71 -42 -118.5t-101 -53.5q82 -15 124 -65.5t42 -127.5q0 -117 -90 -180.5
t-242 -63.5q-164 0 -257 82.5t-93 221.5l249 -9q3 -88 101 -88q29 0 50 15t21 43z" />
    <glyph glyph-name="acute" unicode="&#xb4;" 
d="M530 999h-237l110 291h326z" />
    <glyph glyph-name="paragraph" unicode="&#xb6;" horiz-adv-x="1189" 
d="M543 0v489q-239 0 -370.5 107t-131.5 295q0 186 131.5 292.5t370.5 106.5h547v-1290h-213v1079h-121v-1079h-213z" />
    <glyph glyph-name="periodcentered" unicode="&#xb7;" horiz-adv-x="540" 
d="M94 348v352h352v-352h-352z" />
    <glyph glyph-name="cedilla" unicode="&#xb8;" horiz-adv-x="1705" 
d="M1092 -209q0 -77 -71 -113t-175 -36q-73 0 -135.5 19t-98.5 48l35 80q75 -45 172 -45q82 0 82 43q0 38 -50.5 43.5t-90.5 -14.5l-64 22l129 185h107l-76 -97q96 18 166 -18t70 -117z" />
    <glyph glyph-name="onesuperior" unicode="&#xb9;" horiz-adv-x="507" 
d="M18 995v170q86 0 135 30t72 95h203v-827h-254v532h-156z" />
    <glyph glyph-name="ordmasculine" unicode="&#xba;" horiz-adv-x="884" 
d="M315 938q0 -180 127 -180q64 0 95.5 47.5t31.5 132.5q0 83 -31.5 131.5t-95.5 48.5q-65 0 -96 -48t-31 -132zM846 938q0 -172 -111.5 -280.5t-292.5 -108.5t-292 108t-111 281q0 171 111 279t292 108t292.5 -108t111.5 -279z" />
    <glyph glyph-name="guillemotright" unicode="&#xbb;" horiz-adv-x="991" 
d="M457 610v-295l-396 -256v279l197 125l-197 125v278zM930 610v-295l-395 -256v279l196 125l-196 125v278z" />
    <glyph glyph-name="onequarter" unicode="&#xbc;" horiz-adv-x="1628" 
d="M31 995v170q86 0 135 30t72 95h202v-827h-254v532h-155zM1491 827v-471h96v-194h-96v-162h-250v162h-395v211l340 454h305zM1241 606l-178 -250h178v250zM1239 1290l-774 -1290h-223l774 1290h223z" />
    <glyph glyph-name="onehalf" unicode="&#xbd;" horiz-adv-x="1660" 
d="M31 995v170q86 0 135 30t72 95h202v-827h-254v532h-155zM1239 1290l-774 -1290h-223l774 1290h223zM1315 211h284v-211h-649v188l228 172q95 74 123 110.5t28 86.5q0 70 -67 70q-72 0 -72 -99q0 -35 8 -67l-248 8q-10 68 -10 78q0 133 91.5 215t238.5 82q149 0 237 -76
t88 -195q0 -69 -22 -119t-58.5 -85.5t-113.5 -94.5z" />
    <glyph glyph-name="threequarters" unicode="&#xbe;" horiz-adv-x="1802" 
d="M1665 827v-471h96v-194h-96v-162h-250v162h-395v211l340 454h305zM1415 606l-178 -250h178v250zM446 711q0 35 -25 53t-65 18q-44 0 -55 -2v178q12 -2 57 -2q31 0 52.5 19.5t21.5 52.5q0 72 -70 72q-42 0 -64 -33t-22 -82l-243 10q0 132 91.5 222t246.5 90q147 0 230 -69
t83 -183q0 -71 -42 -118.5t-101 -53.5q82 -15 124 -65.5t42 -127.5q0 -117 -90 -180.5t-242 -63.5q-164 0 -257 82.5t-93 221.5l249 -9q3 -88 101 -88q29 0 50 15t21 43zM1413 1290l-774 -1290h-223l774 1290h223z" />
    <glyph glyph-name="questiondown" unicode="&#xbf;" horiz-adv-x="1073" 
d="M362 631h322q-6 -159 -135 -262q-42 -34 -59 -49t-42.5 -43t-35 -55t-9.5 -60q0 -52 33.5 -86.5t95.5 -34.5q83 0 120.5 50.5t37.5 135.5q0 60 -14 107l340 -10q16 -82 16 -121q0 -206 -139 -331.5t-363 -125.5q-228 0 -359.5 112.5t-131.5 284.5q0 60 16.5 112t50 94.5
t68 74t84.5 68.5q52 38 76.5 70t27.5 69zM700 1061v-352h-352v352h352z" />
    <glyph glyph-name="Agrave" unicode="&#xc0;" horiz-adv-x="1417" 
d="M514 1290h389l514 -1290h-370l-97 250h-504l-96 -250h-350zM821 1368h-237l-199 291h326zM694 891l-147 -381h303l-148 381h-8z" />
    <glyph glyph-name="Aacute" unicode="&#xc1;" horiz-adv-x="1417" 
d="M514 1290h389l514 -1290h-370l-97 250h-504l-96 -250h-350zM815 1368h-237l110 291h326zM694 891l-147 -381h303l-148 381h-8z" />
    <glyph glyph-name="Acircumflex" unicode="&#xc2;" horiz-adv-x="1417" 
d="M514 1290h389l514 -1290h-370l-97 250h-504l-96 -250h-350zM545 1659h311l176 -291h-209l-123 113l-122 -113h-209zM694 891l-147 -381h303l-148 381h-8z" />
    <glyph glyph-name="Atilde" unicode="&#xc3;" horiz-adv-x="1417" 
d="M514 1290h389l514 -1290h-370l-97 250h-504l-96 -250h-350zM543 1368h-154q0 134 48 215.5t136 81.5q50 0 119 -38t101 -38q60 0 65 70h154q0 -134 -48 -215.5t-137 -81.5q-50 0 -118.5 38t-100.5 38q-60 0 -65 -70zM694 891l-147 -381h303l-148 381h-8z" />
    <glyph glyph-name="Adieresis" unicode="&#xc4;" horiz-adv-x="1417" 
d="M514 1290h389l514 -1290h-370l-97 250h-504l-96 -250h-350zM362 1368v291h291v-291h-291zM748 1368v291h290v-291h-290zM694 891l-147 -381h303l-148 381h-8z" />
    <glyph glyph-name="Aring" unicode="&#xc5;" horiz-adv-x="1417" 
d="M514 1290h389l514 -1290h-370l-97 250h-504l-96 -250h-350zM500 1550q0 84 55 138.5t145 54.5t145.5 -54.5t55.5 -138.5t-55.5 -138t-145.5 -54t-145 54t-55 138zM694 891l-147 -381h303l-148 381h-8zM631 1550q0 -32 17.5 -50.5t51.5 -18.5t52 18.5t18 50.5t-18 51
t-52 19t-51.5 -19t-17.5 -51z" />
    <glyph glyph-name="AE" unicode="&#xc6;" horiz-adv-x="2037" 
d="M748 1290h1214v-286h-655v-211h505v-283h-505v-223h673v-287h-1015v291h-437l-163 -291h-365zM956 1049l-282 -498h291v498h-9z" />
    <glyph glyph-name="Ccedilla" unicode="&#xc7;" horiz-adv-x="1370" 
d="M963 -209q0 -77 -71 -113t-175 -36q-73 0 -135.5 19t-98.5 48l35 80q75 -45 172 -45q82 0 82 43q0 38 -50.5 43.5t-90.5 -14.5l-64 22l97 139q-271 14 -447 199t-176 469q0 195 86.5 348.5t237 237.5t337.5 84q144 0 261 -44t194 -122.5t121.5 -182t54.5 -225.5l-334 -12
q-8 57 -27.5 104t-53.5 87.5t-90 63t-128 22.5q-141 0 -221 -97.5t-80 -263.5t80 -263t221 -97q73 0 128.5 22.5t89.5 62.5t53.5 87t27.5 104l334 -14q-9 -115 -49.5 -213t-109.5 -174.5t-173 -123.5t-233 -56l-41 -54q96 18 166 -18t70 -117z" />
    <glyph glyph-name="Egrave" unicode="&#xc8;" horiz-adv-x="1171" 
d="M1114 287v-287h-1016v1290h998v-286h-656v-211h506v-283h-506v-223h674zM739 1368h-237l-199 291h326z" />
    <glyph glyph-name="Eacute" unicode="&#xc9;" horiz-adv-x="1171" 
d="M1114 287v-287h-1016v1290h998v-286h-656v-211h506v-283h-506v-223h674zM733 1368h-237l110 291h326z" />
    <glyph glyph-name="Ecircumflex" unicode="&#xca;" horiz-adv-x="1171" 
d="M1114 287v-287h-1016v1290h998v-286h-656v-211h506v-283h-506v-223h674zM463 1659h311l176 -291h-209l-123 113l-122 -113h-209z" />
    <glyph glyph-name="Edieresis" unicode="&#xcb;" horiz-adv-x="1171" 
d="M1114 287v-287h-1016v1290h998v-286h-656v-211h506v-283h-506v-223h674zM281 1368v291h290v-291h-290zM666 1368v291h290v-291h-290z" />
    <glyph glyph-name="Igrave" unicode="&#xcc;" horiz-adv-x="544" 
d="M98 1290h348v-1290h-348v1290zM393 1368h-237l-199 291h326z" />
    <glyph glyph-name="Iacute" unicode="&#xcd;" horiz-adv-x="544" 
d="M98 1290h348v-1290h-348v1290zM387 1368h-237l110 291h326z" />
    <glyph glyph-name="Icircumflex" unicode="&#xce;" horiz-adv-x="544" 
d="M98 1290h348v-1290h-348v1290zM117 1659h311l176 -291h-209l-123 113l-122 -113h-209z" />
    <glyph glyph-name="Idieresis" unicode="&#xcf;" horiz-adv-x="544" 
d="M98 1290h348v-1290h-348v1290zM-66 1368v291h291v-291h-291zM319 1368v291h291v-291h-291z" />
    <glyph glyph-name="Eth" unicode="&#xd0;" horiz-adv-x="1382" 
d="M31 510v283h108v497h510q322 0 507 -171.5t185 -473.5t-185 -473.5t-507 -171.5h-510v510h-108zM487 274h138q169 0 263.5 97.5t94.5 275.5q0 175 -94.5 272t-263.5 97h-138v-223h273v-283h-273v-236z" />
    <glyph glyph-name="Ntilde" unicode="&#xd1;" horiz-adv-x="1351" 
d="M430 1290l504 -715v715h319v-1290h-278l-557 764v-764h-320v1290h332zM539 1368h-154q0 134 48 215.5t136 81.5q50 0 118.5 -38t100.5 -38q26 0 44.5 16.5t21.5 53.5h154q0 -134 -48 -215.5t-137 -81.5q-50 0 -118.5 38t-100.5 38q-60 0 -65 -70z" />
    <glyph glyph-name="Ograve" unicode="&#xd2;" horiz-adv-x="1421" 
d="M1380 645q0 -194 -89 -348t-241.5 -238t-338.5 -84q-187 0 -339.5 84t-241.5 238t-89 348t89 348t241.5 238t339.5 84q186 0 338.5 -84t241.5 -238t89 -348zM1022 645q0 165 -84.5 264t-226.5 99t-227 -99t-85 -264t85 -263.5t227 -98.5t226.5 98.5t84.5 263.5zM831 1368
h-237l-199 291h326z" />
    <glyph glyph-name="Oacute" unicode="&#xd3;" horiz-adv-x="1421" 
d="M1380 645q0 -194 -89 -348t-241.5 -238t-338.5 -84q-187 0 -339.5 84t-241.5 238t-89 348t89 348t241.5 238t339.5 84q186 0 338.5 -84t241.5 -238t89 -348zM1022 645q0 165 -84.5 264t-226.5 99t-227 -99t-85 -264t85 -263.5t227 -98.5t226.5 98.5t84.5 263.5zM825 1368
h-237l110 291h326z" />
    <glyph glyph-name="Ocircumflex" unicode="&#xd4;" horiz-adv-x="1421" 
d="M1380 645q0 -194 -89 -348t-241.5 -238t-338.5 -84q-187 0 -339.5 84t-241.5 238t-89 348t89 348t241.5 238t339.5 84q186 0 338.5 -84t241.5 -238t89 -348zM1022 645q0 165 -84.5 264t-226.5 99t-227 -99t-85 -264t85 -263.5t227 -98.5t226.5 98.5t84.5 263.5zM555 1659
h311l176 -291h-208l-123 113l-123 -113h-209z" />
    <glyph glyph-name="Otilde" unicode="&#xd5;" horiz-adv-x="1421" 
d="M1380 645q0 -194 -89 -348t-241.5 -238t-338.5 -84q-187 0 -339.5 84t-241.5 238t-89 348t89 348t241.5 238t339.5 84q186 0 338.5 -84t241.5 -238t89 -348zM1022 645q0 165 -84.5 264t-226.5 99t-227 -99t-85 -264t85 -263.5t227 -98.5t226.5 98.5t84.5 263.5zM553 1368
h-154q0 134 48 215.5t137 81.5q50 0 118.5 -38t100.5 -38q60 0 65 70h154q0 -134 -48 -215.5t-136 -81.5q-50 0 -119 38t-101 38q-60 0 -65 -70z" />
    <glyph glyph-name="Odieresis" unicode="&#xd6;" horiz-adv-x="1421" 
d="M1380 645q0 -194 -89 -348t-241.5 -238t-338.5 -84q-187 0 -339.5 84t-241.5 238t-89 348t89 348t241.5 238t339.5 84q186 0 338.5 -84t241.5 -238t89 -348zM1022 645q0 165 -84.5 264t-226.5 99t-227 -99t-85 -264t85 -263.5t227 -98.5t226.5 98.5t84.5 263.5zM373 1368
v291h291v-291h-291zM758 1368v291h291v-291h-291z" />
    <glyph glyph-name="multiply" unicode="&#xd7;" horiz-adv-x="1087" 
d="M356 633l-290 289l188 188l289 -291l291 291l188 -188l-291 -289l291 -289l-188 -186l-291 286l-289 -286l-188 186z" />
    <glyph glyph-name="Oslash" unicode="&#xd8;" horiz-adv-x="1421" 
d="M1380 645q0 -194 -89 -348t-241.5 -238t-338.5 -84q-192 0 -346 88l-109 -139l-145 105l110 145q-180 186 -180 471q0 194 89 348t241.5 238t339.5 84q178 0 329 -80l103 131l145 -104l-102 -134q93 -90 143.5 -213t50.5 -270zM1022 645q0 123 -47 209l-416 -537
q64 -34 152 -34q142 0 226.5 98.5t84.5 263.5zM399 645q0 -109 39 -192l406 526q-63 29 -133 29q-142 0 -227 -99t-85 -264z" />
    <glyph glyph-name="Ugrave" unicode="&#xd9;" horiz-adv-x="1351" 
d="M676 -25q-127 0 -232 31.5t-185 95t-124.5 168t-44.5 242.5v778h346v-721q0 -153 55 -227t185 -74q131 0 185 73.5t54 227.5v721h349v-778q0 -138 -44.5 -242.5t-125.5 -168t-186 -95t-232 -31.5zM797 1368h-238l-199 291h326z" />
    <glyph glyph-name="Uacute" unicode="&#xda;" horiz-adv-x="1351" 
d="M676 -25q-127 0 -232 31.5t-185 95t-124.5 168t-44.5 242.5v778h346v-721q0 -153 55 -227t185 -74q131 0 185 73.5t54 227.5v721h349v-778q0 -138 -44.5 -242.5t-125.5 -168t-186 -95t-232 -31.5zM791 1368h-238l111 291h325z" />
    <glyph glyph-name="Ucircumflex" unicode="&#xdb;" horiz-adv-x="1351" 
d="M676 -25q-127 0 -232 31.5t-185 95t-124.5 168t-44.5 242.5v778h346v-721q0 -153 55 -227t185 -74q131 0 185 73.5t54 227.5v721h349v-778q0 -138 -44.5 -242.5t-125.5 -168t-186 -95t-232 -31.5zM520 1659h311l177 -291h-209l-123 113l-123 -113h-209z" />
    <glyph glyph-name="Udieresis" unicode="&#xdc;" horiz-adv-x="1351" 
d="M676 -25q-127 0 -232 31.5t-185 95t-124.5 168t-44.5 242.5v778h346v-721q0 -153 55 -227t185 -74q131 0 185 73.5t54 227.5v721h349v-778q0 -138 -44.5 -242.5t-125.5 -168t-186 -95t-232 -31.5zM338 1368v291h291v-291h-291zM723 1368v291h291v-291h-291z" />
    <glyph glyph-name="Yacute" unicode="&#xdd;" horiz-adv-x="1329" 
d="M678 825l276 465h375l-495 -801v-489h-338v489l-496 801h387zM778 1368h-237l110 291h326z" />
    <glyph glyph-name="Thorn" unicode="&#xde;" horiz-adv-x="1214" 
d="M444 502h205q115 0 165 40t50 124t-50.5 124.5t-164.5 40.5h-205v-329zM444 223v-223h-346v1290h346v-180h222q255 0 394.5 -114.5t139.5 -327.5q0 -214 -139.5 -329.5t-394.5 -115.5h-222z" />
    <glyph glyph-name="germandbls" unicode="&#xdf;" horiz-adv-x="1110" 
d="M1012 971q0 -184 -154 -252q201 -75 201 -340q0 -182 -105.5 -284.5t-275.5 -102.5q-82 0 -160 24v248q47 -14 88 -14q68 0 108 44.5t40 123.5q0 78 -40 119t-110 41q-16 0 -78 -5v252q18 -2 58 -2q118 0 118 131q0 55 -31.5 89t-90.5 34q-158 0 -158 -243v-834h-332v842
q0 219 130.5 346t352.5 127q198 0 318.5 -93.5t120.5 -250.5z" />
    <glyph glyph-name="agrave" unicode="&#xe0;" horiz-adv-x="1079" 
d="M618 381v14l-135 -24q-64 -13 -95.5 -36t-31.5 -65q0 -35 25.5 -56t67.5 -21q73 0 121 50.5t48 137.5zM944 580v-312q0 -67 55 -67q36 0 74 14v-176q-84 -59 -207 -59q-86 0 -147 42t-84 119q-81 -161 -303 -161q-135 0 -215 65.5t-80 181.5q0 126 83 192.5t242 94.5
l256 43v14q0 121 -114 121q-102 0 -125 -114l-307 20q23 156 138 248t314 92q192 0 306 -88t114 -270zM651 999h-237l-199 291h326z" />
    <glyph glyph-name="aacute" unicode="&#xe1;" horiz-adv-x="1079" 
d="M618 381v14l-135 -24q-64 -13 -95.5 -36t-31.5 -65q0 -35 25.5 -56t67.5 -21q73 0 121 50.5t48 137.5zM944 580v-312q0 -67 55 -67q36 0 74 14v-176q-84 -59 -207 -59q-86 0 -147 42t-84 119q-81 -161 -303 -161q-135 0 -215 65.5t-80 181.5q0 126 83 192.5t242 94.5
l256 43v14q0 121 -114 121q-102 0 -125 -114l-307 20q23 156 138 248t314 92q192 0 306 -88t114 -270zM645 999h-237l110 291h326z" />
    <glyph glyph-name="acircumflex" unicode="&#xe2;" horiz-adv-x="1079" 
d="M618 381v14l-135 -24q-64 -13 -95.5 -36t-31.5 -65q0 -35 25.5 -56t67.5 -21q73 0 121 50.5t48 137.5zM944 580v-312q0 -67 55 -67q36 0 74 14v-176q-84 -59 -207 -59q-86 0 -147 42t-84 119q-81 -161 -303 -161q-135 0 -215 65.5t-80 181.5q0 126 83 192.5t242 94.5
l256 43v14q0 121 -114 121q-102 0 -125 -114l-307 20q23 156 138 248t314 92q192 0 306 -88t114 -270zM375 1290h311l176 -291h-209l-123 113l-122 -113h-209z" />
    <glyph glyph-name="atilde" unicode="&#xe3;" horiz-adv-x="1079" 
d="M618 381v14l-135 -24q-64 -13 -95.5 -36t-31.5 -65q0 -35 25.5 -56t67.5 -21q73 0 121 50.5t48 137.5zM944 580v-312q0 -67 55 -67q36 0 74 14v-176q-84 -59 -207 -59q-86 0 -147 42t-84 119q-81 -161 -303 -161q-135 0 -215 65.5t-80 181.5q0 126 83 192.5t242 94.5
l256 43v14q0 121 -114 121q-102 0 -125 -114l-307 20q23 156 138 248t314 92q192 0 306 -88t114 -270zM377 999h-154q0 134 48 215.5t137 81.5q50 0 118.5 -37.5t100.5 -37.5q60 0 65 69h154q0 -134 -48 -215.5t-136 -81.5q-50 0 -119 38t-101 38q-60 0 -65 -70z" />
    <glyph glyph-name="adieresis" unicode="&#xe4;" horiz-adv-x="1079" 
d="M618 381v14l-135 -24q-64 -13 -95.5 -36t-31.5 -65q0 -35 25.5 -56t67.5 -21q73 0 121 50.5t48 137.5zM944 580v-312q0 -67 55 -67q36 0 74 14v-176q-84 -59 -207 -59q-86 0 -147 42t-84 119q-81 -161 -303 -161q-135 0 -215 65.5t-80 181.5q0 126 83 192.5t242 94.5
l256 43v14q0 121 -114 121q-102 0 -125 -114l-307 20q23 156 138 248t314 92q192 0 306 -88t114 -270zM193 999v291h290v-291h-290zM578 999v291h290v-291h-290z" />
    <glyph glyph-name="aring" unicode="&#xe5;" horiz-adv-x="1079" 
d="M618 381v14l-135 -24q-64 -13 -95.5 -36t-31.5 -65q0 -35 25.5 -56t67.5 -21q73 0 121 50.5t48 137.5zM944 580v-312q0 -67 55 -67q36 0 74 14v-176q-84 -59 -207 -59q-86 0 -147 42t-84 119q-81 -161 -303 -161q-135 0 -215 65.5t-80 181.5q0 126 83 192.5t242 94.5
l256 43v14q0 121 -114 121q-102 0 -125 -114l-307 20q23 156 138 248t314 92q192 0 306 -88t114 -270zM461 1182q0 -32 17.5 -51t51.5 -19t52 19t18 51t-18 50.5t-52 18.5t-51.5 -18.5t-17.5 -50.5zM330 1182q0 84 55 138t145 54t145.5 -54t55.5 -138t-55.5 -138.5
t-145.5 -54.5t-145 54.5t-55 138.5z" />
    <glyph glyph-name="ae" unicode="&#xe6;" horiz-adv-x="1599" 
d="M492 938q195 0 292 -117q47 52 131.5 84.5t171.5 32.5q147 0 255 -63t160 -165.5t52 -228.5v-88h-647q14 -90 68.5 -130t128.5 -40q134 0 178 103l266 -25q-35 -156 -154.5 -241t-301.5 -85q-244 0 -367 170q-49 -75 -143.5 -120t-219.5 -45q-152 0 -238.5 75.5
t-86.5 192.5q0 151 119 226t333 75h146v14q0 60 -34.5 94.5t-94.5 34.5q-54 0 -91.5 -28t-49.5 -74l-287 16q22 150 137 241t277 91zM461 193q75 0 124.5 47.5t49.5 128.5v24h-127q-152 0 -152 -110q0 -41 27.5 -65.5t77.5 -24.5zM1083 700q-139 0 -172 -151h328
q-3 65 -44 108t-112 43z" />
    <glyph glyph-name="ccedilla" unicode="&#xe7;" horiz-adv-x="1028" 
d="M776 -209q0 -77 -71 -113t-175 -36q-73 0 -135 19t-98 48l35 80q75 -45 172 -45q82 0 82 43q0 26 -25 37t-57 7.5t-60 -15.5l-63 22l98 142q-196 19 -317 148t-121 329q0 215 140.5 348t359.5 133q197 0 314.5 -112t135.5 -285l-272 -19q-17 85 -59.5 125.5t-114.5 40.5
q-79 0 -124.5 -56.5t-45.5 -174.5t45.5 -175t124.5 -57q140 0 174 168l272 -20q-18 -166 -124 -275t-287 -121l-39 -51q96 18 165.5 -18t69.5 -117z" />
    <glyph glyph-name="egrave" unicode="&#xe8;" horiz-adv-x="1050" 
d="M733 326l266 -25q-35 -156 -154.5 -241t-301.5 -85q-223 0 -362.5 126t-139.5 341q0 216 141.5 356t356.5 140q147 0 255 -63t160 -165.5t52 -228.5v-92h-641q6 -81 58.5 -123.5t131.5 -42.5q134 0 178 103zM369 549h321q-3 65 -44 108t-111 43q-75 0 -115.5 -41
t-50.5 -110zM664 999h-238l-199 291h326z" />
    <glyph glyph-name="eacute" unicode="&#xe9;" horiz-adv-x="1050" 
d="M733 326l266 -25q-35 -156 -154.5 -241t-301.5 -85q-223 0 -362.5 126t-139.5 341q0 216 141.5 356t356.5 140q147 0 255 -63t160 -165.5t52 -228.5v-92h-641q6 -81 58.5 -123.5t131.5 -42.5q134 0 178 103zM369 549h321q-3 65 -44 108t-111 43q-75 0 -115.5 -41
t-50.5 -110zM657 999h-237l110 291h326z" />
    <glyph glyph-name="ecircumflex" unicode="&#xea;" horiz-adv-x="1050" 
d="M733 326l266 -25q-35 -156 -154.5 -241t-301.5 -85q-223 0 -362.5 126t-139.5 341q0 216 141.5 356t356.5 140q147 0 255 -63t160 -165.5t52 -228.5v-92h-641q6 -81 58.5 -123.5t131.5 -42.5q134 0 178 103zM369 549h321q-3 65 -44 108t-111 43q-75 0 -115.5 -41
t-50.5 -110zM387 1290h311l176 -291h-208l-123 113l-123 -113h-209z" />
    <glyph glyph-name="edieresis" unicode="&#xeb;" horiz-adv-x="1050" 
d="M733 326l266 -25q-35 -156 -154.5 -241t-301.5 -85q-223 0 -362.5 126t-139.5 341q0 216 141.5 356t356.5 140q147 0 255 -63t160 -165.5t52 -228.5v-92h-641q6 -81 58.5 -123.5t131.5 -42.5q134 0 178 103zM369 549h321q-3 65 -44 108t-111 43q-75 0 -115.5 -41
t-50.5 -110zM205 999v291h291v-291h-291zM590 999v291h291v-291h-291z" />
    <glyph glyph-name="igrave" unicode="&#xec;" horiz-adv-x="512" 
d="M90 913h332v-913h-332v913zM377 999h-238l-198 291h325z" />
    <glyph glyph-name="iacute" unicode="&#xed;" horiz-adv-x="512" 
d="M90 913h332v-913h-332v913zM371 999h-238l111 291h325z" />
    <glyph glyph-name="icircumflex" unicode="&#xee;" horiz-adv-x="512" 
d="M90 913h332v-913h-332v913zM100 1290h312l176 -291h-209l-123 113l-123 -113h-209z" />
    <glyph glyph-name="idieresis" unicode="&#xef;" horiz-adv-x="512" 
d="M90 913h332v-913h-332v913zM-82 999v291h291v-291h-291zM303 999v291h291v-291h-291z" />
    <glyph glyph-name="eth" unicode="&#xf0;" horiz-adv-x="1075" 
d="M209 891l-49 139l202 62q-73 51 -186 120l297 103q124 -67 199 -127l192 59l49 -139l-116 -37q237 -259 237 -582q0 -239 -134 -376.5t-359 -137.5q-228 0 -364 122t-136 339q0 104 37 187.5t99 135t140 78.5t164 27q132 0 213 -78q-35 75 -184 197zM541 231
q76 0 121 57.5t45 145.5q0 90 -45 147.5t-121 57.5t-121 -57.5t-45 -147.5q0 -88 45 -145.5t121 -57.5z" />
    <glyph glyph-name="ntilde" unicode="&#xf1;" horiz-adv-x="1126" 
d="M422 449v-449h-332v913h332v-137q37 76 115 119t180 43q73 0 130 -20t94 -53.5t61.5 -81t34.5 -99.5t10 -111v-573h-332v485q0 97 -31 144t-104 47q-158 0 -158 -227zM426 999h-154q0 134 48 215.5t137 81.5q50 0 118.5 -37.5t100.5 -37.5q60 0 65 69h154
q0 -134 -48 -215.5t-136 -81.5q-50 0 -118.5 38t-100.5 38q-26 0 -44.5 -16.5t-21.5 -53.5z" />
    <glyph glyph-name="ograve" unicode="&#xf2;" horiz-adv-x="1081" 
d="M375 457q0 -108 41 -170t125 -62q83 0 124.5 62.5t41.5 169.5t-41.5 169t-124.5 62q-84 0 -125 -61.5t-41 -169.5zM1040 457q0 -214 -138.5 -348t-360.5 -134q-224 0 -362 134t-138 348q0 213 138.5 347t361.5 134q222 0 360.5 -134t138.5 -347zM662 999h-238l-199 291
h326z" />
    <glyph glyph-name="oacute" unicode="&#xf3;" horiz-adv-x="1081" 
d="M375 457q0 -108 41 -170t125 -62q83 0 124.5 62.5t41.5 169.5t-41.5 169t-124.5 62q-84 0 -125 -61.5t-41 -169.5zM1040 457q0 -214 -138.5 -348t-360.5 -134q-224 0 -362 134t-138 348q0 213 138.5 347t361.5 134q222 0 360.5 -134t138.5 -347zM655 999h-237l110 291
h326z" />
    <glyph glyph-name="ocircumflex" unicode="&#xf4;" horiz-adv-x="1081" 
d="M375 457q0 -108 41 -170t125 -62q83 0 124.5 62.5t41.5 169.5t-41.5 169t-124.5 62q-84 0 -125 -61.5t-41 -169.5zM1040 457q0 -214 -138.5 -348t-360.5 -134q-224 0 -362 134t-138 348q0 213 138.5 347t361.5 134q222 0 360.5 -134t138.5 -347zM385 1290h311l176 -291
h-208l-123 113l-123 -113h-209z" />
    <glyph glyph-name="otilde" unicode="&#xf5;" horiz-adv-x="1081" 
d="M375 457q0 -108 41 -170t125 -62q83 0 124.5 62.5t41.5 169.5t-41.5 169t-124.5 62q-84 0 -125 -61.5t-41 -169.5zM1040 457q0 -214 -138.5 -348t-360.5 -134q-224 0 -362 134t-138 348q0 213 138.5 347t361.5 134q222 0 360.5 -134t138.5 -347zM387 999h-154
q0 134 48 215.5t137 81.5q50 0 118.5 -37.5t100.5 -37.5q60 0 65 69h154q0 -134 -48 -215.5t-136 -81.5q-50 0 -118.5 38t-100.5 38q-26 0 -44.5 -16.5t-21.5 -53.5z" />
    <glyph glyph-name="odieresis" unicode="&#xf6;" horiz-adv-x="1081" 
d="M375 457q0 -108 41 -170t125 -62q83 0 124.5 62.5t41.5 169.5t-41.5 169t-124.5 62q-84 0 -125 -61.5t-41 -169.5zM1040 457q0 -214 -138.5 -348t-360.5 -134q-224 0 -362 134t-138 348q0 213 138.5 347t361.5 134q222 0 360.5 -134t138.5 -347zM203 999v291h291v-291
h-291zM588 999v291h291v-291h-291z" />
    <glyph glyph-name="divide" unicode="&#xf7;" horiz-adv-x="1253" 
d="M86 498v276h1081v-276h-1081zM451 905v334h354v-334h-354zM451 33v332h354v-332h-354z" />
    <glyph glyph-name="oslash" unicode="&#xf8;" horiz-adv-x="1081" 
d="M1040 457q0 -214 -138.5 -348t-360.5 -134q-142 0 -258 58l-86 -105l-115 90l84 103q-125 131 -125 336q0 213 138.5 347t361.5 134q147 0 256 -59l88 104l114 -88l-86 -104q127 -133 127 -334zM350 457q0 -55 12 -101l263 314q-37 18 -84 18q-93 0 -142 -62.5
t-49 -168.5zM731 457q0 57 -14 98l-260 -313q33 -17 84 -17q91 0 140.5 63t49.5 169z" />
    <glyph glyph-name="ugrave" unicode="&#xf9;" horiz-adv-x="1114" 
d="M692 465v448h332v-913h-332v137q-37 -77 -110.5 -119.5t-175.5 -42.5q-90 0 -155.5 29.5t-101.5 81.5t-52.5 114.5t-16.5 137.5v575h332v-487q0 -96 31 -143t104 -47q145 0 145 229zM672 999h-238l-198 291h325z" />
    <glyph glyph-name="uacute" unicode="&#xfa;" horiz-adv-x="1114" 
d="M692 465v448h332v-913h-332v137q-37 -77 -110.5 -119.5t-175.5 -42.5q-90 0 -155.5 29.5t-101.5 81.5t-52.5 114.5t-16.5 137.5v575h332v-487q0 -96 31 -143t104 -47q145 0 145 229zM666 999h-238l111 291h325z" />
    <glyph glyph-name="ucircumflex" unicode="&#xfb;" horiz-adv-x="1114" 
d="M692 465v448h332v-913h-332v137q-37 -77 -110.5 -119.5t-175.5 -42.5q-90 0 -155.5 29.5t-101.5 81.5t-52.5 114.5t-16.5 137.5v575h332v-487q0 -96 31 -143t104 -47q145 0 145 229zM395 1290h312l176 -291h-209l-123 113l-123 -113h-209z" />
    <glyph glyph-name="udieresis" unicode="&#xfc;" horiz-adv-x="1114" 
d="M692 465v448h332v-913h-332v137q-37 -77 -110.5 -119.5t-175.5 -42.5q-90 0 -155.5 29.5t-101.5 81.5t-52.5 114.5t-16.5 137.5v575h332v-487q0 -96 31 -143t104 -47q145 0 145 229zM213 999v291h291v-291h-291zM598 999v291h291v-291h-291z" />
    <glyph glyph-name="yacute" unicode="&#xfd;" horiz-adv-x="1083" 
d="M563 -328h-325l131 316l-373 925h348l203 -534h8l207 534h325zM655 999h-237l110 291h326z" />
    <glyph glyph-name="thorn" unicode="&#xfe;" horiz-adv-x="1169" 
d="M422 463v-12q0 -100 50 -160t134 -60q94 0 141.5 61t47.5 165q0 102 -47.5 162.5t-141.5 60.5q-84 0 -134 -59t-50 -158zM422 156v-484h-332v1618h332v-534q35 85 112 133.5t189 48.5q130 0 223 -65t137.5 -172t44.5 -244q0 -138 -44.5 -245t-137.5 -172t-223 -65
q-111 0 -188.5 49t-112.5 132z" />
    <glyph glyph-name="ydieresis" unicode="&#xff;" horiz-adv-x="1083" 
d="M563 -328h-325l131 316l-373 925h348l203 -534h8l207 534h325zM203 999v291h291v-291h-291zM588 999v291h291v-291h-291z" />
    <glyph glyph-name="Amacron" unicode="&#x100;" horiz-adv-x="1417" 
d="M514 1290h389l514 -1290h-370l-97 250h-504l-96 -250h-350zM410 1376v221h583v-221h-583zM694 891l-147 -381h303l-148 381h-8z" />
    <glyph glyph-name="amacron" unicode="&#x101;" horiz-adv-x="1079" 
d="M618 381v14l-135 -24q-64 -13 -95.5 -36t-31.5 -65q0 -35 25.5 -56t67.5 -21q73 0 121 50.5t48 137.5zM944 580v-312q0 -67 55 -67q36 0 74 14v-176q-84 -59 -207 -59q-86 0 -147 42t-84 119q-81 -161 -303 -161q-135 0 -215 65.5t-80 181.5q0 126 83 192.5t242 94.5
l256 43v14q0 121 -114 121q-102 0 -125 -114l-307 20q23 156 138 248t314 92q192 0 306 -88t114 -270zM250 1008v221h563v-221h-563z" />
    <glyph glyph-name="Abreve" unicode="&#x102;" horiz-adv-x="1417" 
d="M514 1290h389l514 -1290h-370l-97 250h-504l-96 -250h-350zM700 1368q-136 0 -213 77t-77 214h186q0 -47 28.5 -70.5t75.5 -23.5t76 23.5t29 70.5h186q0 -137 -77.5 -214t-213.5 -77zM694 891l-147 -381h303l-148 381h-8z" />
    <glyph glyph-name="abreve" unicode="&#x103;" horiz-adv-x="1079" 
d="M618 381v14l-135 -24q-64 -13 -95.5 -36t-31.5 -65q0 -35 25.5 -56t67.5 -21q73 0 121 50.5t48 137.5zM944 580v-312q0 -67 55 -67q36 0 74 14v-176q-84 -59 -207 -59q-86 0 -147 42t-84 119q-81 -161 -303 -161q-135 0 -215 65.5t-80 181.5q0 126 83 192.5t242 94.5
l256 43v14q0 121 -114 121q-102 0 -125 -114l-307 20q23 156 138 248t314 92q192 0 306 -88t114 -270zM530 999q-136 0 -213 77t-77 214h186q0 -47 28.5 -70.5t75.5 -23.5t76 23.5t29 70.5h186q0 -136 -77.5 -213.5t-213.5 -77.5z" />
    <glyph glyph-name="Aogonek" unicode="&#x104;" horiz-adv-x="1417" 
d="M514 1290h389l514 -1290q-85 -46 -115 -73.5t-30 -59.5q0 -26 15 -39.5t40 -13.5q37 0 90 24v-147q-75 -49 -166 -49t-142.5 40t-51.5 107q0 119 121 211h-131l-97 250h-504l-96 -250h-350zM694 891l-147 -381h303l-148 381h-8z" />
    <glyph glyph-name="aogonek" unicode="&#x105;" horiz-adv-x="1079" 
d="M944 580v-312q0 -67 55 -67q36 0 74 14v-176q-85 -70 -115 -104.5t-30 -67.5q0 -26 15 -39.5t40 -13.5q37 0 90 24v-147q-75 -49 -166 -49t-142.5 40t-51.5 107q0 105 100 195q-66 12 -113 52t-65 105q-81 -161 -303 -161q-135 0 -215 65.5t-80 181.5q0 126 83 192.5
t242 94.5l256 43v14q0 121 -114 121q-102 0 -125 -114l-307 20q23 156 138 248t314 92q192 0 306 -88t114 -270zM618 383v14l-135 -26q-63 -13 -95 -36t-32 -65q0 -35 25.5 -56t67.5 -21q73 0 121 51.5t48 138.5z" />
    <glyph glyph-name="Cacute" unicode="&#x106;" horiz-adv-x="1370" 
d="M41 645q0 195 86.5 348.5t237 237.5t337.5 84q144 0 261 -44t194 -122.5t121.5 -182t54.5 -225.5l-334 -12q-8 57 -27.5 104t-53.5 87.5t-90 63t-128 22.5q-141 0 -221 -97.5t-80 -263.5t80 -263t221 -97q73 0 128.5 22.5t89.5 62.5t53.5 87t27.5 104l334 -14
q-10 -122 -54.5 -225.5t-121.5 -181t-194 -121.5t-261 -44q-187 0 -337.5 84t-237 237.5t-86.5 348.5zM838 1368h-238l111 291h325z" />
    <glyph glyph-name="cacute" unicode="&#x107;" horiz-adv-x="1028" 
d="M41 457q0 215 140.5 348t359.5 133q197 0 314.5 -112t135.5 -285l-272 -19q-17 85 -59.5 125.5t-114.5 40.5q-79 0 -124.5 -56.5t-45.5 -174.5t45.5 -175t124.5 -57q140 0 174 168l272 -20q-18 -174 -135.5 -286t-314.5 -112q-219 0 -359.5 133t-140.5 349zM651 999h-237
l110 291h326z" />
    <glyph glyph-name="Ccircumflex" unicode="&#x108;" horiz-adv-x="1370" 
d="M41 645q0 195 86.5 348.5t237 237.5t337.5 84q144 0 261 -44t194 -122.5t121.5 -182t54.5 -225.5l-334 -12q-8 57 -27.5 104t-53.5 87.5t-90 63t-128 22.5q-141 0 -221 -97.5t-80 -263.5t80 -263t221 -97q73 0 128.5 22.5t89.5 62.5t53.5 87t27.5 104l334 -14
q-10 -122 -54.5 -225.5t-121.5 -181t-194 -121.5t-261 -44q-187 0 -337.5 84t-237 237.5t-86.5 348.5zM559 1659h311l177 -291h-209l-123 113l-123 -113h-209z" />
    <glyph glyph-name="ccircumflex" unicode="&#x109;" horiz-adv-x="1028" 
d="M41 457q0 215 140.5 348t359.5 133q197 0 314.5 -112t135.5 -285l-272 -19q-17 85 -59.5 125.5t-114.5 40.5q-79 0 -124.5 -56.5t-45.5 -174.5t45.5 -175t124.5 -57q140 0 174 168l272 -20q-18 -174 -135.5 -286t-314.5 -112q-219 0 -359.5 133t-140.5 349zM381 1290h311
l176 -291h-209l-122 113l-123 -113h-209z" />
    <glyph glyph-name="Cdotaccent" unicode="&#x10a;" horiz-adv-x="1370" 
d="M41 645q0 195 86.5 348.5t237 237.5t337.5 84q144 0 261 -44t194 -122.5t121.5 -182t54.5 -225.5l-334 -12q-8 57 -27.5 104t-53.5 87.5t-90 63t-128 22.5q-141 0 -221 -97.5t-80 -263.5t80 -263t221 -97q73 0 128.5 22.5t89.5 62.5t53.5 87t27.5 104l334 -14
q-10 -122 -54.5 -225.5t-121.5 -181t-194 -121.5t-261 -44q-187 0 -337.5 84t-237 237.5t-86.5 348.5zM547 1368v291h336v-291h-336z" />
    <glyph glyph-name="cdotaccent" unicode="&#x10b;" horiz-adv-x="1028" 
d="M41 457q0 215 140.5 348t359.5 133q197 0 314.5 -112t135.5 -285l-272 -19q-17 85 -59.5 125.5t-114.5 40.5q-79 0 -124.5 -56.5t-45.5 -174.5t45.5 -175t124.5 -57q140 0 174 168l272 -20q-18 -174 -135.5 -286t-314.5 -112q-219 0 -359.5 133t-140.5 349zM369 999v291
h336v-291h-336z" />
    <glyph glyph-name="Ccaron" unicode="&#x10c;" horiz-adv-x="1370" 
d="M41 645q0 195 86.5 348.5t237 237.5t337.5 84q144 0 261 -44t194 -122.5t121.5 -182t54.5 -225.5l-334 -12q-8 57 -27.5 104t-53.5 87.5t-90 63t-128 22.5q-141 0 -221 -97.5t-80 -263.5t80 -263t221 -97q73 0 128.5 22.5t89.5 62.5t53.5 87t27.5 104l334 -14
q-10 -122 -54.5 -225.5t-121.5 -181t-194 -121.5t-261 -44q-187 0 -337.5 84t-237 237.5t-86.5 348.5zM870 1368h-311l-176 291h209l123 -113l123 113h209z" />
    <glyph glyph-name="ccaron" unicode="&#x10d;" horiz-adv-x="1028" 
d="M41 457q0 215 140.5 348t359.5 133q197 0 314.5 -112t135.5 -285l-272 -19q-17 85 -59.5 125.5t-114.5 40.5q-79 0 -124.5 -56.5t-45.5 -174.5t45.5 -175t124.5 -57q140 0 174 168l272 -20q-18 -174 -135.5 -286t-314.5 -112q-219 0 -359.5 133t-140.5 349zM692 999h-311
l-176 291h209l123 -112l122 112h209z" />
    <glyph glyph-name="Dcaron" unicode="&#x10e;" horiz-adv-x="1341" 
d="M446 274h138q169 0 263.5 97.5t94.5 275.5q0 175 -94.5 272t-263.5 97h-138v-742zM98 0v1290h510q322 0 507 -171.5t185 -473.5t-185 -473.5t-507 -171.5h-510zM772 1368h-311l-176 291h209l122 -113l123 113h209z" />
    <glyph glyph-name="dcaron" unicode="&#x10f;" horiz-adv-x="1167" 
d="M745 451v12q0 98 -49.5 157.5t-132.5 59.5q-95 0 -141.5 -60t-46.5 -163q0 -104 46.5 -165t141.5 -61q83 0 132.5 60t49.5 160zM745 0v156q-33 -83 -111 -132t-188 -49q-131 0 -224 65t-137 172t-44 245q0 137 44 244t137 172t224 65q111 0 188.5 -49t110.5 -133v534h332
v-1290h-332zM1350 985h-209l26 305h318z" />
    <glyph glyph-name="Dcroat" unicode="&#x110;" horiz-adv-x="1382" 
d="M31 510v283h108v497h510q322 0 507 -171.5t185 -473.5t-185 -473.5t-507 -171.5h-510v510h-108zM487 274h138q169 0 263.5 97.5t94.5 275.5q0 175 -94.5 272t-263.5 97h-138v-223h273v-283h-273v-236z" />
    <glyph glyph-name="dcroat" unicode="&#x111;" horiz-adv-x="1167" 
d="M745 0v150q-34 -80 -111.5 -127.5t-187.5 -47.5q-195 0 -300 129.5t-105 333.5q0 132 44 235t137 165.5t224 62.5q111 0 188.5 -47.5t110.5 -128.5v233h-253v203h253v129h332v-129h111v-203h-111v-958h-332zM745 442v11q0 93 -49.5 148.5t-132.5 55.5q-95 0 -141.5 -56.5
t-46.5 -154.5t46.5 -154t141.5 -56q83 0 132.5 56t49.5 150z" />
    <glyph glyph-name="Emacron" unicode="&#x112;" horiz-adv-x="1171" 
d="M1114 287v-287h-1016v1290h998v-286h-656v-211h506v-283h-506v-223h674zM328 1376v221h583v-221h-583z" />
    <glyph glyph-name="emacron" unicode="&#x113;" horiz-adv-x="1050" 
d="M733 326l266 -25q-35 -156 -154.5 -241t-301.5 -85q-223 0 -362.5 126t-139.5 341q0 216 141.5 356t356.5 140q147 0 255 -63t160 -165.5t52 -228.5v-92h-641q6 -81 58.5 -123.5t131.5 -42.5q134 0 178 103zM369 549h321q-3 65 -44 108t-111 43q-75 0 -115.5 -41
t-50.5 -110zM262 1008v221h563v-221h-563z" />
    <glyph glyph-name="Ebreve" unicode="&#x114;" horiz-adv-x="1171" 
d="M1114 287v-287h-1016v1290h998v-286h-656v-211h506v-283h-506v-223h674zM618 1368q-136 0 -213 77t-77 214h186q0 -47 28.5 -70.5t75.5 -23.5t76 23.5t29 70.5h186q0 -137 -77.5 -214t-213.5 -77z" />
    <glyph glyph-name="ebreve" unicode="&#x115;" horiz-adv-x="1050" 
d="M733 326l266 -25q-35 -156 -154.5 -241t-301.5 -85q-223 0 -362.5 126t-139.5 341q0 216 141.5 356t356.5 140q147 0 255 -63t160 -165.5t52 -228.5v-92h-641q6 -81 58.5 -123.5t131.5 -42.5q134 0 178 103zM369 549h321q-3 65 -44 108t-111 43q-75 0 -115.5 -41
t-50.5 -110zM543 999q-137 0 -214 77.5t-77 213.5h186q0 -47 29 -70.5t76 -23.5t75.5 23.5t28.5 70.5h187q0 -136 -77 -213.5t-214 -77.5z" />
    <glyph glyph-name="Edotaccent" unicode="&#x116;" horiz-adv-x="1171" 
d="M1114 287v-287h-1016v1290h998v-286h-656v-211h506v-283h-506v-223h674zM451 1368v291h335v-291h-335z" />
    <glyph glyph-name="edotaccent" unicode="&#x117;" horiz-adv-x="1050" 
d="M733 326l266 -25q-35 -156 -154.5 -241t-301.5 -85q-223 0 -362.5 126t-139.5 341q0 216 141.5 356t356.5 140q147 0 255 -63t160 -165.5t52 -228.5v-92h-641q6 -81 58.5 -123.5t131.5 -42.5q134 0 178 103zM369 549h321q-3 65 -44 108t-111 43q-75 0 -115.5 -41
t-50.5 -110zM375 999v291h336v-291h-336z" />
    <glyph glyph-name="Eogonek" unicode="&#x118;" horiz-adv-x="1171" 
d="M1114 287v-287h-72q-60 -52 -81 -77.5t-21 -55.5q0 -26 15 -39.5t40 -13.5q37 0 90 24v-147q-75 -49 -165 -49q-91 0 -143 40t-52 107q0 119 121 211h-748v1290h998v-286h-656v-211h506v-283h-506v-223h674z" />
    <glyph glyph-name="eogonek" unicode="&#x119;" horiz-adv-x="1050" 
d="M733 326l266 -25q-35 -154 -168 -250q-157 -112 -157 -184q0 -26 15 -39.5t40 -13.5q37 0 90 24v-147q-75 -49 -166 -49t-142.5 40t-51.5 107q0 100 92 186h-8q-223 0 -362.5 126t-139.5 341q0 216 141.5 356t356.5 140q147 0 255 -63t160 -165.5t52 -228.5v-92h-641
q6 -81 58.5 -123.5t131.5 -42.5q134 0 178 103zM369 549h321q-3 65 -44 108t-111 43q-75 0 -115.5 -41t-50.5 -110z" />
    <glyph glyph-name="Ecaron" unicode="&#x11a;" horiz-adv-x="1171" 
d="M1114 287v-287h-1016v1290h998v-286h-656v-211h506v-283h-506v-223h674zM774 1368h-311l-176 291h209l122 -113l123 113h209z" />
    <glyph glyph-name="ecaron" unicode="&#x11b;" horiz-adv-x="1050" 
d="M733 326l266 -25q-35 -156 -154.5 -241t-301.5 -85q-223 0 -362.5 126t-139.5 341q0 216 141.5 356t356.5 140q147 0 255 -63t160 -165.5t52 -228.5v-92h-641q6 -81 58.5 -123.5t131.5 -42.5q134 0 178 103zM369 549h321q-3 65 -44 108t-111 43q-75 0 -115.5 -41
t-50.5 -110zM698 999h-311l-176 291h209l123 -112l123 112h208z" />
    <glyph glyph-name="Gcircumflex" unicode="&#x11c;" horiz-adv-x="1433" 
d="M668 -25q-177 0 -319.5 83.5t-225 237t-82.5 349.5q0 194 88.5 348t240 238t337.5 84q280 0 443 -141.5t185 -387.5l-338 -12q-14 108 -87 170t-195 62q-150 0 -233 -97t-83 -264q0 -172 89 -273.5t253 -101.5q89 0 163.5 38.5t111.5 111.5h-285v250h615v-670h-304v143
q-102 -168 -374 -168zM571 1659h312l176 -291h-209l-123 113l-123 -113h-209z" />
    <glyph glyph-name="gcircumflex" unicode="&#x11d;" horiz-adv-x="1058" 
d="M952 625q0 -143 -123.5 -227.5t-320.5 -84.5q-110 0 -199 27q-18 -15 -18 -43q0 -25 19.5 -40t58.5 -15h379q151 0 231 -71.5t80 -190.5q0 -109 -83 -186t-210 -111.5t-281 -34.5q-485 0 -485 223q0 60 49 103t125 49q-60 20 -95.5 69t-35.5 109q0 65 41 114.5t115 77.5
q-131 85 -131 232q0 144 122.5 228.5t317.5 84.5q170 0 293 -74q43 60 113.5 101t142.5 41v-250q-65 0 -133 -15q28 -54 28 -116zM373 1290h311l176 -291h-209l-123 113l-122 -113h-209zM272 -96q0 -84 215 -84q119 0 193 23t74 63q0 53 -84 53h-336q-28 0 -45 -14.5
t-17 -40.5zM608 625q0 59 -27 95t-69 36t-69 -36t-27 -95q0 -60 27 -96.5t69 -36.5t69 36.5t27 96.5z" />
    <glyph glyph-name="Gbreve" unicode="&#x11e;" horiz-adv-x="1433" 
d="M668 -25q-177 0 -319.5 83.5t-225 237t-82.5 349.5q0 194 88.5 348t240 238t337.5 84q280 0 443 -141.5t185 -387.5l-338 -12q-14 108 -87 170t-195 62q-150 0 -233 -97t-83 -264q0 -172 89 -273.5t253 -101.5q89 0 163.5 38.5t111.5 111.5h-285v250h615v-670h-304v143
q-102 -168 -374 -168zM727 1368q-137 0 -214 77t-77 214h187q0 -47 28.5 -70.5t75.5 -23.5t75.5 23.5t28.5 70.5h187q0 -137 -77 -214t-214 -77z" />
    <glyph glyph-name="gbreve" unicode="&#x11f;" horiz-adv-x="1058" 
d="M952 625q0 -143 -123.5 -227.5t-320.5 -84.5q-110 0 -199 27q-18 -15 -18 -43q0 -25 19.5 -40t58.5 -15h379q151 0 231 -71.5t80 -190.5q0 -109 -83 -186t-210 -111.5t-281 -34.5q-485 0 -485 223q0 60 49 103t125 49q-60 20 -95.5 69t-35.5 109q0 65 41 114.5t115 77.5
q-131 85 -131 232q0 144 122.5 228.5t317.5 84.5q170 0 293 -74q43 60 113.5 101t142.5 41v-250q-65 0 -133 -15q28 -54 28 -116zM528 999q-136 0 -213 77t-77 214h186q0 -47 28.5 -70.5t75.5 -23.5t76 23.5t29 70.5h186q0 -136 -77.5 -213.5t-213.5 -77.5zM272 -96
q0 -84 215 -84q119 0 193 23t74 63q0 53 -84 53h-336q-28 0 -45 -14.5t-17 -40.5zM608 625q0 59 -27 95t-69 36t-69 -36t-27 -95q0 -60 27 -96.5t69 -36.5t69 36.5t27 96.5z" />
    <glyph glyph-name="Gdotaccent" unicode="&#x120;" horiz-adv-x="1433" 
d="M668 -25q-177 0 -319.5 83.5t-225 237t-82.5 349.5q0 194 88.5 348t240 238t337.5 84q280 0 443 -141.5t185 -387.5l-338 -12q-14 108 -87 170t-195 62q-150 0 -233 -97t-83 -264q0 -172 89 -273.5t253 -101.5q89 0 163.5 38.5t111.5 111.5h-285v250h615v-670h-304v143
q-102 -168 -374 -168zM559 1368v291h336v-291h-336z" />
    <glyph glyph-name="gdotaccent" unicode="&#x121;" horiz-adv-x="1058" 
d="M952 625q0 -143 -123.5 -227.5t-320.5 -84.5q-110 0 -199 27q-18 -15 -18 -43q0 -25 19.5 -40t58.5 -15h379q151 0 231 -71.5t80 -190.5q0 -109 -83 -186t-210 -111.5t-281 -34.5q-485 0 -485 223q0 60 49 103t125 49q-60 20 -95.5 69t-35.5 109q0 65 41 114.5t115 77.5
q-131 85 -131 232q0 144 122.5 228.5t317.5 84.5q170 0 293 -74q43 60 113.5 101t142.5 41v-250q-65 0 -133 -15q28 -54 28 -116zM360 999v291h336v-291h-336zM272 -96q0 -84 215 -84q119 0 193 23t74 63q0 53 -84 53h-336q-28 0 -45 -14.5t-17 -40.5zM608 625q0 59 -27 95
t-69 36t-69 -36t-27 -95q0 -60 27 -96.5t69 -36.5t69 36.5t27 96.5z" />
    <glyph glyph-name="Gcommaaccent" unicode="&#x122;" horiz-adv-x="1433" 
d="M668 -25q-177 0 -319.5 83.5t-225 237t-82.5 349.5q0 194 88.5 348t240 238t337.5 84q280 0 443 -141.5t185 -387.5l-338 -12q-14 108 -87 170t-195 62q-150 0 -233 -97t-83 -264q0 -172 89 -273.5t253 -101.5q89 0 163.5 38.5t111.5 111.5h-285v250h615v-670h-304v143
q-102 -168 -374 -168zM592 -272v202h291v-149q0 -120 -73 -173.5t-218 -53.5v108q60 0 86 14t27 52h-113z" />
    <glyph glyph-name="gcommaaccent" unicode="&#x123;" horiz-adv-x="1058" 
d="M952 625q0 -143 -123.5 -227.5t-320.5 -84.5q-110 0 -199 27q-18 -15 -18 -43q0 -25 19.5 -40t58.5 -15h379q151 0 231 -71.5t80 -190.5q0 -109 -83 -186t-210 -111.5t-281 -34.5q-485 0 -485 223q0 60 49 103t125 49q-60 20 -95.5 69t-35.5 109q0 65 41 114.5t115 77.5
q-131 85 -131 232q0 144 122.5 228.5t317.5 84.5q170 0 293 -74q43 60 113.5 101t142.5 41v-250q-65 0 -133 -15q28 -54 28 -116zM674 1202v-203h-291v150q0 120 73 173.5t218 53.5v-108q-60 0 -86 -14t-27 -52h113zM272 -96q0 -84 215 -84q119 0 193 23t74 63q0 53 -84 53
h-336q-28 0 -45 -14.5t-17 -40.5zM608 625q0 59 -27 95t-69 36t-69 -36t-27 -95q0 -60 27 -96.5t69 -36.5t69 36.5t27 96.5z" />
    <glyph glyph-name="Hcircumflex" unicode="&#x124;" horiz-adv-x="1406" 
d="M446 0h-348v1290h348v-497h515v497h348v-1290h-348v510h-515v-510zM547 1659h311l176 -291h-209l-123 113l-122 -113h-209z" />
    <glyph glyph-name="hcircumflex" unicode="&#x125;" horiz-adv-x="1126" 
d="M422 449v-449h-332v1290h332v-514q37 76 115 119t180 43q73 0 130 -20t94 -53.5t61.5 -81t34.5 -99.5t10 -111v-573h-332v485q0 97 -31 144t-104 47q-158 0 -158 -227zM391 1659h311l177 -291h-209l-123 113l-123 -113h-209z" />
    <glyph glyph-name="Hbar" unicode="&#x126;" horiz-adv-x="1488" 
d="M31 825v283h108v182h348v-182h514v182h349v-182h108v-283h-108v-825h-349v408h-514v-408h-348v825h-108zM487 690h514v135h-514v-135z" />
    <glyph glyph-name="hbar" unicode="&#x127;" horiz-adv-x="1126" 
d="M-20 958v203h110v129h332v-129h254v-203h-254v-217q37 76 115 119t180 43q90 0 156.5 -29.5t103 -82t53.5 -115t17 -137.5v-539h-332v451q0 97 -31 143.5t-104 46.5q-158 0 -158 -227v-414h-332v958h-110z" />
    <glyph glyph-name="Itilde" unicode="&#x128;" horiz-adv-x="544" 
d="M115 1368h-154q0 134 48 215.5t136 81.5q50 0 119 -38t101 -38q60 0 65 70h154q0 -134 -48 -215.5t-137 -81.5q-50 0 -118.5 38t-100.5 38q-60 0 -65 -70zM98 1290h348v-1290h-348v1290z" />
    <glyph glyph-name="itilde" unicode="&#x129;" horiz-adv-x="512" 
d="M117 999h-154q0 134 48 215.5t136 81.5q40 0 73 -19t61 -37.5t57 -18.5q60 0 65 69h154q0 -134 -48 -215.5t-136 -81.5q-40 0 -73 19t-61 38t-57 19q-60 0 -65 -70zM90 913h332v-913h-332v913z" />
    <glyph glyph-name="Imacron" unicode="&#x12a;" horiz-adv-x="544" 
d="M98 1290h348v-1290h-348v1290zM-18 1376v221h583v-221h-583z" />
    <glyph glyph-name="imacron" unicode="&#x12b;" horiz-adv-x="512" 
d="M90 913h332v-913h-332v913zM6 1008v221h500v-221h-500z" />
    <glyph glyph-name="Ibreve" unicode="&#x12c;" horiz-adv-x="544" 
d="M98 1290h348v-1290h-348v1290zM272 1368q-136 0 -213 77t-77 214h186q0 -47 28.5 -70.5t75.5 -23.5t76 23.5t29 70.5h186q0 -137 -77.5 -214t-213.5 -77z" />
    <glyph glyph-name="ibreve" unicode="&#x12d;" horiz-adv-x="512" 
d="M90 913h332v-913h-332v913zM256 999q-136 0 -213.5 77.5t-77.5 213.5h187q0 -47 28.5 -70.5t75.5 -23.5t75.5 23.5t28.5 70.5h187q0 -136 -77.5 -213.5t-213.5 -77.5z" />
    <glyph glyph-name="Iogonek" unicode="&#x12e;" horiz-adv-x="544" 
d="M98 1290h348v-1290q-85 -46 -115 -73.5t-30 -59.5q0 -26 15 -39.5t40 -13.5q37 0 90 24v-147q-75 -49 -165 -49q-91 0 -143 40t-52 107q0 119 121 211h-109v1290z" />
    <glyph glyph-name="iogonek" unicode="&#x12f;" horiz-adv-x="512" 
d="M90 913h332v-913q-85 -46 -115.5 -73.5t-30.5 -59.5q0 -26 15.5 -39.5t40.5 -13.5q37 0 90 24v-147q-75 -49 -166 -49t-143 40t-52 107q0 119 121 211h-92v913zM88 999v291h336v-291h-336z" />
    <glyph glyph-name="Idotaccent" unicode="&#x130;" horiz-adv-x="544" 
d="M98 1290h348v-1290h-348v1290zM104 1368v291h336v-291h-336z" />
    <glyph glyph-name="dotlessi" unicode="&#x131;" horiz-adv-x="512" 
d="M90 913h332v-913h-332v913z" />
    <glyph glyph-name="IJ" unicode="&#x132;" horiz-adv-x="1677" 
d="M98 1290h348v-1290h-348v1290zM1249 1290h348v-821q0 -249 -141 -371.5t-383 -122.5q-250 0 -390.5 139t-141.5 396l336 12q12 -252 194 -252q93 0 135.5 55.5t42.5 174.5v790z" />
    <glyph glyph-name="ij" unicode="&#x133;" 
d="M90 913h332v-913h-332v913zM88 999v291h336v-291h-336zM934 913v-944q0 -164 -89 -242.5t-253 -78.5q-173 0 -262 65l51 201q63 -39 133 -39q88 0 88 111v927h332zM600 999v291h336v-291h-336z" />
    <glyph glyph-name="Jcircumflex" unicode="&#x134;" horiz-adv-x="1153" 
d="M725 1290h348v-821q0 -249 -141 -371.5t-383 -122.5q-251 0 -391.5 139.5t-141.5 395.5l336 12q12 -252 195 -252q93 0 135.5 55.5t42.5 174.5v790zM737 1659h312l176 -291h-209l-123 113l-123 -113h-209z" />
    <glyph glyph-name="jcircumflex" unicode="&#x135;" horiz-adv-x="512" 
d="M422 913v-944q0 -164 -89 -242.5t-253 -78.5q-173 0 -262 65l51 201q63 -39 133 -39q88 0 88 111v927h332zM102 1290h312l176 -291h-209l-123 113l-123 -113h-209z" />
    <glyph glyph-name="Kcommaaccent" unicode="&#x136;" horiz-adv-x="1312" 
d="M1333 0h-415l-359 514l-113 -123v-391h-348v1290h348v-522l463 522h400l-498 -549zM512 -272v202h291v-149q0 -120 -73 -173.5t-218 -53.5v108q60 0 86 14t27 52h-113z" />
    <glyph glyph-name="kcommaaccent" unicode="&#x137;" horiz-adv-x="1120" 
d="M422 289v-289h-332v1290h332v-692l313 315h389l-376 -358l389 -555h-373l-262 371zM430 -272v202h291v-149q0 -120 -73 -173.5t-218 -53.5v108q60 0 86 14t27 52h-113z" />
    <glyph glyph-name="kgreenlandic" unicode="&#x138;" horiz-adv-x="1120" 
d="M422 289v-289h-332v913h332v-315l313 315h389l-376 -358l389 -555h-373l-262 371z" />
    <glyph glyph-name="Lacute" unicode="&#x139;" horiz-adv-x="1136" 
d="M98 1290h348v-1003h639v-287h-987v1290zM399 1368h-237l110 291h326z" />
    <glyph glyph-name="lacute" unicode="&#x13a;" horiz-adv-x="512" 
d="M90 1290h332v-1290h-332v1290zM371 1368h-238l111 291h325z" />
    <glyph glyph-name="Lcommaaccent" unicode="&#x13b;" horiz-adv-x="1136" 
d="M98 1290h348v-1003h639v-287h-987v1290zM446 -272v202h291v-149q0 -120 -73 -173.5t-218 -53.5v108q60 0 86 14t27 52h-113z" />
    <glyph glyph-name="lcommaaccent" unicode="&#x13c;" horiz-adv-x="512" 
d="M90 1290h332v-1290h-332v1290zM111 -272v202h290v-149q0 -120 -72.5 -173.5t-217.5 -53.5v108q59 0 85 14t27 52h-112z" />
    <glyph glyph-name="Lcaron" unicode="&#x13d;" horiz-adv-x="1136" 
d="M98 1290h348v-1003h639v-287h-987v1290zM813 985h-209l27 305h317z" />
    <glyph glyph-name="lcaron" unicode="&#x13e;" horiz-adv-x="512" 
d="M90 1290h332v-1290h-332v1290zM690 985h-209l27 305h317z" />
    <glyph glyph-name="Ldot" unicode="&#x13f;" horiz-adv-x="1136" 
d="M98 1290h348v-1003h639v-287h-987v1290zM680 590v291h336v-291h-336z" />
    <glyph glyph-name="ldot" unicode="&#x140;" horiz-adv-x="849" 
d="M90 1290h332v-1290h-332v1290zM510 500v291h336v-291h-336z" />
    <glyph glyph-name="Lslash" unicode="&#x141;" horiz-adv-x="1177" 
d="M139 1290h348v-452l334 125v-273l-334 -125v-278h639v-287h-987v444l-108 -41v273l108 39v575z" />
    <glyph glyph-name="lslash" unicode="&#x142;" horiz-adv-x="593" 
d="M131 1290h332v-403l121 51v-240l-121 -51v-647h-332v520l-121 -51v240l121 51v530z" />
    <glyph glyph-name="Nacute" unicode="&#x143;" horiz-adv-x="1351" 
d="M430 1290l504 -715v715h319v-1290h-278l-557 764v-764h-320v1290h332zM811 1368h-238l111 291h326z" />
    <glyph glyph-name="nacute" unicode="&#x144;" horiz-adv-x="1126" 
d="M422 449v-449h-332v913h332v-137q37 76 115 119t180 43q73 0 130 -20t94 -53.5t61.5 -81t34.5 -99.5t10 -111v-573h-332v485q0 97 -31 144t-104 47q-158 0 -158 -227zM694 999h-237l110 291h326z" />
    <glyph glyph-name="Ncommaaccent" unicode="&#x145;" horiz-adv-x="1351" 
d="M430 1290l504 -715v715h319v-1290h-278l-557 764v-764h-320v1290h332zM551 -272v202h291v-149q0 -120 -73 -173.5t-218 -53.5v108q60 0 86 14t27 52h-113z" />
    <glyph glyph-name="ncommaaccent" unicode="&#x146;" horiz-adv-x="1126" 
d="M422 449v-449h-332v913h332v-137q37 76 115 119t180 43q73 0 130 -20t94 -53.5t61.5 -81t34.5 -99.5t10 -111v-573h-332v485q0 97 -31 144t-104 47q-158 0 -158 -227zM434 -272v202h291v-149q0 -120 -73 -173.5t-218 -53.5v108q60 0 86 14t27 52h-113z" />
    <glyph glyph-name="Ncaron" unicode="&#x147;" horiz-adv-x="1351" 
d="M430 1290l504 -715v715h319v-1290h-278l-557 764v-764h-320v1290h332zM852 1368h-311l-176 291h208l123 -113l123 113h209z" />
    <glyph glyph-name="ncaron" unicode="&#x148;" horiz-adv-x="1126" 
d="M422 449v-449h-332v913h332v-137q37 76 115 119t180 43q73 0 130 -20t94 -53.5t61.5 -81t34.5 -99.5t10 -111v-573h-332v485q0 97 -31 144t-104 47q-158 0 -158 -227zM735 999h-311l-176 291h209l123 -112l122 112h209z" />
    <glyph glyph-name="Eng" unicode="&#x14a;" horiz-adv-x="1351" 
d="M541 -221l141 209q62 -62 135 -62q63 0 89 31t26 100l-514 707v-764h-320v1290h332l504 -715v715h319v-1204q0 -217 -101 -327.5t-294 -110.5q-96 0 -183.5 37.5t-133.5 93.5z" />
    <glyph glyph-name="eng" unicode="&#x14b;" horiz-adv-x="1126" 
d="M715 -14v499q0 97 -31 144t-104 47q-158 0 -158 -227v-449h-332v913h332v-137q37 76 115 119t180 43q73 0 130 -20t94 -53.5t61.5 -81t34.5 -99.5t10 -111v-604q0 -164 -89 -242.5t-253 -78.5q-174 0 -263 65l52 201q63 -39 133 -39q88 0 88 111z" />
    <glyph glyph-name="Omacron" unicode="&#x14c;" horiz-adv-x="1421" 
d="M1380 645q0 -194 -89 -348t-241.5 -238t-338.5 -84q-187 0 -339.5 84t-241.5 238t-89 348t89 348t241.5 238t339.5 84q186 0 338.5 -84t241.5 -238t89 -348zM1022 645q0 165 -84.5 264t-226.5 99t-227 -99t-85 -264t85 -263.5t227 -98.5t226.5 98.5t84.5 263.5zM420 1376
v221h584v-221h-584z" />
    <glyph glyph-name="omacron" unicode="&#x14d;" horiz-adv-x="1081" 
d="M375 457q0 -108 41 -170t125 -62q83 0 124.5 62.5t41.5 169.5t-41.5 169t-124.5 62q-84 0 -125 -61.5t-41 -169.5zM1040 457q0 -214 -138.5 -348t-360.5 -134q-224 0 -362 134t-138 348q0 213 138.5 347t361.5 134q222 0 360.5 -134t138.5 -347zM260 1008v221h563v-221
h-563z" />
    <glyph glyph-name="Obreve" unicode="&#x14e;" horiz-adv-x="1421" 
d="M1380 645q0 -194 -89 -348t-241.5 -238t-338.5 -84q-187 0 -339.5 84t-241.5 238t-89 348t89 348t241.5 238t339.5 84q186 0 338.5 -84t241.5 -238t89 -348zM1022 645q0 165 -84.5 264t-226.5 99t-227 -99t-85 -264t85 -263.5t227 -98.5t226.5 98.5t84.5 263.5zM711 1368
q-137 0 -214 77t-77 214h186q0 -47 29 -70.5t76 -23.5t75.5 23.5t28.5 70.5h186q0 -137 -77 -214t-213 -77z" />
    <glyph glyph-name="obreve" unicode="&#x14f;" horiz-adv-x="1081" 
d="M375 457q0 -108 41 -170t125 -62q83 0 124.5 62.5t41.5 169.5t-41.5 169t-124.5 62q-84 0 -125 -61.5t-41 -169.5zM1040 457q0 -214 -138.5 -348t-360.5 -134q-224 0 -362 134t-138 348q0 213 138.5 347t361.5 134q222 0 360.5 -134t138.5 -347zM541 999
q-137 0 -214 77.5t-77 213.5h186q0 -47 29 -70.5t76 -23.5t75.5 23.5t28.5 70.5h186q0 -137 -77 -214t-213 -77z" />
    <glyph glyph-name="Ohungarumlaut" unicode="&#x150;" horiz-adv-x="1421" 
d="M1380 645q0 -194 -89 -348t-241.5 -238t-338.5 -84q-187 0 -339.5 84t-241.5 238t-89 348t89 348t241.5 238t339.5 84q186 0 338.5 -84t241.5 -238t89 -348zM1022 645q0 165 -84.5 264t-226.5 99t-227 -99t-85 -264t85 -263.5t227 -98.5t226.5 98.5t84.5 263.5zM635 1368
h-215l82 291h303zM987 1368h-215l82 291h303z" />
    <glyph glyph-name="ohungarumlaut" unicode="&#x151;" horiz-adv-x="1081" 
d="M375 457q0 -108 41 -170t125 -62q83 0 124.5 62.5t41.5 169.5t-41.5 169t-124.5 62q-84 0 -125 -61.5t-41 -169.5zM1040 457q0 -214 -138.5 -348t-360.5 -134q-224 0 -362 134t-138 348q0 213 138.5 347t361.5 134q222 0 360.5 -134t138.5 -347zM461 999h-215l82 291h303
zM813 999h-215l82 291h303z" />
    <glyph glyph-name="OE" unicode="&#x152;" horiz-adv-x="1968" 
d="M1911 287v-287h-1178q-322 0 -507 171.5t-185 473.5t185 473.5t507 171.5h1159v-286h-655v-211h506v-283h-506v-223h674zM895 1016h-137q-169 0 -264 -97.5t-95 -275.5q0 -174 95 -271.5t264 -97.5h137v742z" />
    <glyph glyph-name="oe" unicode="&#x153;" horiz-adv-x="1710" 
d="M541 938q192 0 333 -125q141 125 324 125q147 0 255 -63t160 -165.5t52 -228.5v-88h-641q6 -82 59 -126t131 -44q135 0 179 103l266 -25q-35 -156 -155 -241t-302 -85q-201 0 -336 119q-133 -119 -325 -119q-224 0 -362 134t-138 348q0 213 138.5 347t361.5 134zM375 457
q0 -108 41 -170t125 -62q83 0 124.5 62.5t41.5 169.5t-41.5 169t-124.5 62q-84 0 -125 -61.5t-41 -169.5zM1028 549h322q-3 65 -44 108t-112 43q-75 0 -115.5 -41t-50.5 -110z" />
    <glyph glyph-name="Racute" unicode="&#x154;" horiz-adv-x="1304" 
d="M1268 0h-353q-38 49 -53 248q-7 105 -51.5 142.5t-138.5 37.5h-232v-428h-342v1290h652q246 0 372.5 -108t126.5 -301q0 -138 -76.5 -227.5t-197.5 -104.5q102 -21 158.5 -81.5t66.5 -170.5q14 -155 25.5 -209.5t42.5 -87.5zM440 696h248q115 0 168 35t53 121
q0 160 -221 160h-248v-316zM772 1368h-237l110 291h326z" />
    <glyph glyph-name="racute" unicode="&#x155;" horiz-adv-x="811" 
d="M799 903l-21 -313q-65 39 -157 39q-97 0 -148 -50t-51 -161v-418h-332v913h332v-161q26 80 94 133t156 53q82 0 127 -35zM559 999h-237l110 291h326z" />
    <glyph glyph-name="Rcommaaccent" unicode="&#x156;" horiz-adv-x="1304" 
d="M1268 0h-353q-38 49 -53 248q-7 105 -51.5 142.5t-138.5 37.5h-232v-428h-342v1290h652q246 0 372.5 -108t126.5 -301q0 -138 -76.5 -227.5t-197.5 -104.5q102 -21 158.5 -81.5t66.5 -170.5q14 -155 25.5 -209.5t42.5 -87.5zM440 696h248q115 0 168 35t53 121
q0 160 -221 160h-248v-316zM512 -272v202h291v-149q0 -120 -73 -173.5t-218 -53.5v108q60 0 86 14t27 52h-113z" />
    <glyph glyph-name="rcommaaccent" unicode="&#x157;" horiz-adv-x="811" 
d="M799 903l-21 -313q-65 39 -157 39q-97 0 -148 -50t-51 -161v-418h-332v913h332v-161q26 80 94 133t156 53q82 0 127 -35zM113 -272v202h290v-149q0 -120 -72.5 -173.5t-217.5 -53.5v108q59 0 85 14t27 52h-112z" />
    <glyph glyph-name="Rcaron" unicode="&#x158;" horiz-adv-x="1304" 
d="M1268 0h-353q-38 49 -53 248q-7 105 -51.5 142.5t-138.5 37.5h-232v-428h-342v1290h652q246 0 372.5 -108t126.5 -301q0 -138 -76.5 -227.5t-197.5 -104.5q102 -21 158.5 -81.5t66.5 -170.5q14 -155 25.5 -209.5t42.5 -87.5zM440 696h248q115 0 168 35t53 121
q0 160 -221 160h-248v-316zM813 1368h-311l-176 291h209l122 -113l123 113h209z" />
    <glyph glyph-name="rcaron" unicode="&#x159;" horiz-adv-x="811" 
d="M799 903l-21 -313q-65 39 -157 39q-97 0 -148 -50t-51 -161v-418h-332v913h332v-161q26 80 94 133t156 53q82 0 127 -35zM600 999h-311l-176 291h209l122 -112l123 112h209z" />
    <glyph glyph-name="Sacute" unicode="&#x15a;" horiz-adv-x="1241" 
d="M41 457l319 10q6 -77 47 -127.5t99.5 -70t134.5 -19.5q91 0 145 30.5t54 84.5q0 19 -5 33t-19.5 24.5t-25 17t-37 13t-39.5 9.5t-48 9l-236 41q-167 31 -262.5 126t-95.5 257q0 196 141.5 308t384.5 112q264 0 407 -121.5t148 -339.5l-319 -6q-7 96 -71.5 145t-168.5 49
q-86 0 -133 -31t-47 -85q0 -42 32 -64t97 -33l243 -43q394 -69 394 -399q0 -133 -73 -227.5t-192.5 -139.5t-273.5 -45q-269 0 -434.5 127t-165.5 355zM737 1368h-237l110 291h326z" />
    <glyph glyph-name="sacute" unicode="&#x15b;" horiz-adv-x="944" 
d="M25 297l288 4q9 -57 54 -88t120 -31q54 0 83.5 17.5t29.5 46.5q0 56 -84 69l-135 21q-174 28 -256 93.5t-82 199.5q0 137 112.5 223t301.5 86q196 0 310 -81.5t128 -225.5l-272 -8q-9 50 -53 78t-119 28q-47 0 -74 -17t-27 -48q0 -22 15.5 -35.5t40.5 -16.5l178 -30
q323 -52 323 -303q0 -144 -113.5 -224t-310.5 -80t-321 81t-137 241zM592 999h-238l111 291h326z" />
    <glyph glyph-name="Scircumflex" unicode="&#x15c;" horiz-adv-x="1241" 
d="M41 457l319 10q6 -77 47 -127.5t99.5 -70t134.5 -19.5q91 0 145 30.5t54 84.5q0 19 -5 33t-19.5 24.5t-25 17t-37 13t-39.5 9.5t-48 9l-236 41q-167 31 -262.5 126t-95.5 257q0 196 141.5 308t384.5 112q264 0 407 -121.5t148 -339.5l-319 -6q-7 96 -71.5 145t-168.5 49
q-86 0 -133 -31t-47 -85q0 -42 32 -64t97 -33l243 -43q394 -69 394 -399q0 -133 -73 -227.5t-192.5 -139.5t-273.5 -45q-269 0 -434.5 127t-165.5 355zM467 1659h311l176 -291h-209l-122 113l-123 -113h-209z" />
    <glyph glyph-name="scircumflex" unicode="&#x15d;" horiz-adv-x="944" 
d="M25 297l288 4q9 -57 54 -88t120 -31q54 0 83.5 17.5t29.5 46.5q0 56 -84 69l-135 21q-174 28 -256 93.5t-82 199.5q0 137 112.5 223t301.5 86q196 0 310 -81.5t128 -225.5l-272 -8q-9 50 -53 78t-119 28q-47 0 -74 -17t-27 -48q0 -22 15.5 -35.5t40.5 -16.5l178 -30
q323 -52 323 -303q0 -144 -113.5 -224t-310.5 -80t-321 81t-137 241zM322 1290h311l176 -291h-209l-123 113l-123 -113h-209z" />
    <glyph glyph-name="Scedilla" unicode="&#x15e;" horiz-adv-x="1241" 
d="M862 -209q0 -77 -71 -113t-175 -36q-73 0 -135 19t-98 48l35 80q75 -45 172 -45q82 0 82 43q0 26 -25 37t-57 7.5t-60 -15.5l-63 22l98 142q-239 15 -381.5 140t-142.5 337l319 10q6 -77 47 -127.5t99.5 -70t134.5 -19.5q91 0 145 30.5t54 84.5q0 19 -5 33t-19.5 24.5
t-25 17t-37 13t-39.5 9.5t-48 9l-236 41q-167 31 -262.5 126t-95.5 257q0 196 141.5 308t384.5 112q264 0 407 -121.5t148 -339.5l-319 -6q-7 96 -71.5 145t-168.5 49q-86 0 -133 -31t-47 -85q0 -42 32 -64t97 -33l243 -43q394 -69 394 -399q0 -130 -69 -223t-183 -139
t-262 -50l-39 -49q96 18 165.5 -18t69.5 -117z" />
    <glyph glyph-name="scedilla" unicode="&#x15f;" horiz-adv-x="944" 
d="M717 -209q0 -77 -71 -113t-175 -36q-73 0 -135 19t-98 48l34 80q75 -45 172 -45q82 0 82 43q0 38 -50.5 43.5t-90.5 -14.5l-63 22l98 139q-172 13 -277.5 93t-117.5 227l288 4q9 -57 54 -88t120 -31q54 0 83.5 17.5t29.5 46.5q0 56 -84 69l-135 21q-174 28 -256 93.5
t-82 199.5q0 137 112.5 223t301.5 86q196 0 310 -81.5t128 -225.5l-272 -8q-9 50 -53 78t-119 28q-47 0 -74 -17t-27 -48q0 -22 15.5 -35.5t40.5 -16.5l178 -30q323 -52 323 -303q0 -137 -102.5 -215.5t-284.5 -86.5l-39 -51q96 18 166 -18t70 -117z" />
    <glyph glyph-name="Scaron" unicode="&#x160;" horiz-adv-x="1241" 
d="M41 457l319 10q6 -77 47 -127.5t99.5 -70t134.5 -19.5q91 0 145 30.5t54 84.5q0 19 -5 33t-19.5 24.5t-25 17t-37 13t-39.5 9.5t-48 9l-236 41q-167 31 -262.5 126t-95.5 257q0 196 141.5 308t384.5 112q264 0 407 -121.5t148 -339.5l-319 -6q-7 96 -71.5 145t-168.5 49
q-86 0 -133 -31t-47 -85q0 -42 32 -64t97 -33l243 -43q394 -69 394 -399q0 -133 -73 -227.5t-192.5 -139.5t-273.5 -45q-269 0 -434.5 127t-165.5 355zM778 1368h-311l-176 291h209l123 -113l122 113h209z" />
    <glyph glyph-name="scaron" unicode="&#x161;" horiz-adv-x="944" 
d="M25 297l288 4q9 -57 54 -88t120 -31q54 0 83.5 17.5t29.5 46.5q0 56 -84 69l-135 21q-174 28 -256 93.5t-82 199.5q0 137 112.5 223t301.5 86q196 0 310 -81.5t128 -225.5l-272 -8q-9 50 -53 78t-119 28q-47 0 -74 -17t-27 -48q0 -22 15.5 -35.5t40.5 -16.5l178 -30
q323 -52 323 -303q0 -144 -113.5 -224t-310.5 -80t-321 81t-137 241zM633 999h-311l-177 291h209l123 -112l123 112h209z" />
    <glyph glyph-name="Tcedilla" unicode="&#x162;" horiz-adv-x="1339" 
d="M840 0h-346v1004h-443v286h1237v-286h-448v-1004zM524 -272v202h291v-149q0 -120 -73 -173.5t-218 -53.5v108q60 0 86 14t27 52h-113z" />
    <glyph glyph-name="tcedilla" unicode="&#x163;" horiz-adv-x="733" 
d="M123 254v430h-123v205l68 10q65 10 94.5 44.5t48.5 103.5l31 118h209v-252h237v-229h-237v-334q0 -57 26 -82.5t78 -25.5q69 0 141 30v-215q-113 -82 -274 -82q-61 0 -112 14t-94.5 44.5t-68 86.5t-24.5 134zM272 -272v202h291v-149q0 -120 -73 -173.5t-218 -53.5v108
q60 0 86 14t27 52h-113z" />
    <glyph glyph-name="Tcaron" unicode="&#x164;" horiz-adv-x="1339" 
d="M840 0h-346v1004h-443v286h1237v-286h-448v-1004zM825 1368h-311l-176 291h209l123 -113l123 113h208z" />
    <glyph glyph-name="tcaron" unicode="&#x165;" horiz-adv-x="733" 
d="M123 254v430h-123v205l68 10q65 10 94.5 44.5t48.5 103.5l31 118h209v-252h237v-229h-237v-334q0 -57 26 -82.5t78 -25.5q69 0 141 30v-215q-113 -82 -274 -82q-61 0 -112 14t-94.5 44.5t-68 86.5t-24.5 134zM715 985h-209l26 305h318z" />
    <glyph glyph-name="Tbar" unicode="&#x166;" horiz-adv-x="1339" 
d="M266 469v283h228v252h-443v286h1237v-286h-448v-252h227v-283h-227v-469h-346v469h-228z" />
    <glyph glyph-name="tbar" unicode="&#x167;" horiz-adv-x="768" 
d="M29 377v203h123v104h-123v205l67 10q65 10 95 44.5t49 103.5l30 118h209v-252h238v-229h-238v-104h238v-203h-238v-27q0 -57 26 -82.5t79 -25.5q69 0 141 30v-215q-113 -82 -274 -82q-61 0 -112 14t-94.5 44.5t-68 86.5t-24.5 134v123h-123z" />
    <glyph glyph-name="Utilde" unicode="&#x168;" horiz-adv-x="1351" 
d="M676 -25q-127 0 -232 31.5t-185 95t-124.5 168t-44.5 242.5v778h346v-721q0 -153 55 -227t185 -74q131 0 185 73.5t54 227.5v721h349v-778q0 -138 -44.5 -242.5t-125.5 -168t-186 -95t-232 -31.5zM518 1368h-153q0 134 48 215.5t136 81.5q50 0 118.5 -38t100.5 -38
q26 0 44.5 16.5t21.5 53.5h153q0 -134 -48 -215.5t-136 -81.5q-50 0 -118.5 38t-100.5 38q-26 0 -44.5 -16.5t-21.5 -53.5z" />
    <glyph glyph-name="utilde" unicode="&#x169;" horiz-adv-x="1114" 
d="M692 465v448h332v-913h-332v137q-37 -77 -110.5 -119.5t-175.5 -42.5q-90 0 -155.5 29.5t-101.5 81.5t-52.5 114.5t-16.5 137.5v575h332v-487q0 -96 31 -143t104 -47q145 0 145 229zM397 999h-153q0 134 48 215.5t136 81.5q50 0 118.5 -37.5t100.5 -37.5q61 0 66 69h153
q0 -134 -48 -215.5t-136 -81.5q-50 0 -118.5 38t-100.5 38q-26 0 -44.5 -16.5t-21.5 -53.5z" />
    <glyph glyph-name="Umacron" unicode="&#x16a;" horiz-adv-x="1351" 
d="M676 -25q-127 0 -232 31.5t-185 95t-124.5 168t-44.5 242.5v778h346v-721q0 -153 55 -227t185 -74q131 0 185 73.5t54 227.5v721h349v-778q0 -138 -44.5 -242.5t-125.5 -168t-186 -95t-232 -31.5zM385 1376v221h584v-221h-584z" />
    <glyph glyph-name="umacron" unicode="&#x16b;" horiz-adv-x="1114" 
d="M692 465v448h332v-913h-332v137q-37 -77 -110.5 -119.5t-175.5 -42.5q-90 0 -155.5 29.5t-101.5 81.5t-52.5 114.5t-16.5 137.5v575h332v-487q0 -96 31 -143t104 -47q145 0 145 229zM270 1008v221h564v-221h-564z" />
    <glyph glyph-name="Ubreve" unicode="&#x16c;" horiz-adv-x="1351" 
d="M676 -25q-127 0 -232 31.5t-185 95t-124.5 168t-44.5 242.5v778h346v-721q0 -153 55 -227t185 -74q131 0 185 73.5t54 227.5v721h349v-778q0 -138 -44.5 -242.5t-125.5 -168t-186 -95t-232 -31.5zM676 1368q-136 0 -213.5 77t-77.5 214h186q0 -47 29 -70.5t76 -23.5
t75.5 23.5t28.5 70.5h187q0 -137 -77.5 -214t-213.5 -77z" />
    <glyph glyph-name="ubreve" unicode="&#x16d;" horiz-adv-x="1114" 
d="M692 465v448h332v-913h-332v137q-37 -77 -110.5 -119.5t-175.5 -42.5q-90 0 -155.5 29.5t-101.5 81.5t-52.5 114.5t-16.5 137.5v575h332v-487q0 -96 31 -143t104 -47q145 0 145 229zM551 999q-137 0 -214 77.5t-77 213.5h186q0 -47 29 -70.5t76 -23.5t75.5 23.5
t28.5 70.5h187q0 -136 -77 -213.5t-214 -77.5z" />
    <glyph glyph-name="Uring" unicode="&#x16e;" horiz-adv-x="1351" 
d="M676 -25q-127 0 -232 31.5t-185 95t-124.5 168t-44.5 242.5v778h346v-721q0 -153 55 -227t185 -74q131 0 185 73.5t54 227.5v721h349v-778q0 -138 -44.5 -242.5t-125.5 -168t-186 -95t-232 -31.5zM606 1550q0 -32 18 -50.5t52 -18.5t51.5 18.5t17.5 50.5t-17.5 51
t-51.5 19t-52 -19t-18 -51zM475 1550q0 84 55.5 138.5t145.5 54.5t145.5 -54.5t55.5 -138.5t-55.5 -138t-145.5 -54t-145.5 54t-55.5 138z" />
    <glyph glyph-name="uring" unicode="&#x16f;" horiz-adv-x="1114" 
d="M692 465v448h332v-913h-332v137q-37 -77 -110.5 -119.5t-175.5 -42.5q-90 0 -155.5 29.5t-101.5 81.5t-52.5 114.5t-16.5 137.5v575h332v-487q0 -96 31 -143t104 -47q145 0 145 229zM481 1182q0 -32 18 -51t52 -19t52 19t18 51t-18 50.5t-52 18.5t-52 -18.5t-18 -50.5z
M350 1182q0 84 55.5 138t145.5 54t145.5 -54t55.5 -138t-55.5 -138.5t-145.5 -54.5t-145.5 54.5t-55.5 138.5z" />
    <glyph glyph-name="Uhungarumlaut" unicode="&#x170;" horiz-adv-x="1351" 
d="M676 -25q-127 0 -232 31.5t-185 95t-124.5 168t-44.5 242.5v778h346v-721q0 -153 55 -227t185 -74q131 0 185 73.5t54 227.5v721h349v-778q0 -138 -44.5 -242.5t-125.5 -168t-186 -95t-232 -31.5zM600 1368h-215l82 291h303zM952 1368h-215l82 291h303z" />
    <glyph glyph-name="uhungarumlaut" unicode="&#x171;" horiz-adv-x="1114" 
d="M692 465v448h332v-913h-332v137q-37 -77 -110.5 -119.5t-175.5 -42.5q-90 0 -155.5 29.5t-101.5 81.5t-52.5 114.5t-16.5 137.5v575h332v-487q0 -96 31 -143t104 -47q145 0 145 229zM471 999h-215l82 291h303zM823 999h-215l82 291h303z" />
    <glyph glyph-name="Uogonek" unicode="&#x172;" horiz-adv-x="1351" 
d="M676 -25q-127 0 -232 31.5t-185 95t-124.5 168t-44.5 242.5v778h346v-721q0 -153 55 -227t185 -74q131 0 185 73.5t54 227.5v721h349v-778q0 -188 -81.5 -309.5t-226.5 -179.5q-10 -9 -27 -24.5t-24 -21.5t-20 -18t-18 -18t-13 -15t-11.5 -15t-7.5 -14t-5 -15t-1 -15
q0 -26 15.5 -39.5t40.5 -13.5q37 0 90 24v-147q-75 -49 -166 -49t-143 40t-52 107q0 99 93 186h-31z" />
    <glyph glyph-name="uogonek" unicode="&#x173;" horiz-adv-x="1114" 
d="M692 465v448h332v-913q-85 -46 -115 -73.5t-30 -59.5q0 -26 15 -39.5t40 -13.5q37 0 90 24v-147q-75 -49 -166 -49t-142.5 40t-51.5 107q0 120 120 211h-92v137q-37 -77 -110.5 -119.5t-175.5 -42.5q-90 0 -155.5 29.5t-101.5 81.5t-52.5 114.5t-16.5 137.5v575h332v-487
q0 -96 31 -143t104 -47q145 0 145 229z" />
    <glyph glyph-name="Wcircumflex" unicode="&#x174;" horiz-adv-x="1849" 
d="M1087 1290l213 -809h9l204 809h336l-338 -1290h-370l-215 815h-8l-216 -815h-364l-338 1290h348l205 -809h8l213 809h313zM768 1659h311l176 -291h-208l-123 113l-123 -113h-209z" />
    <glyph glyph-name="wcircumflex" unicode="&#x175;" horiz-adv-x="1495" 
d="M895 913l133 -518h8l164 518h299l-289 -913h-325l-133 516h-9l-133 -516h-325l-289 913h330l163 -518h9l133 518h264zM592 1290h311l176 -291h-209l-122 113l-123 -113h-209z" />
    <glyph glyph-name="Ycircumflex" unicode="&#x176;" horiz-adv-x="1329" 
d="M678 825l276 465h375l-495 -801v-489h-338v489l-496 801h387zM508 1659h311l176 -291h-209l-122 113l-123 -113h-209z" />
    <glyph glyph-name="ycircumflex" unicode="&#x177;" horiz-adv-x="1083" 
d="M563 -328h-325l131 316l-373 925h348l203 -534h8l207 534h325zM385 1290h311l176 -291h-208l-123 113l-123 -113h-209z" />
    <glyph glyph-name="Ydieresis" unicode="&#x178;" horiz-adv-x="1329" 
d="M678 825l276 465h375l-495 -801v-489h-338v489l-496 801h387zM326 1368v291h290v-291h-290zM711 1368v291h290v-291h-290z" />
    <glyph glyph-name="Zacute" unicode="&#x179;" horiz-adv-x="1216" 
d="M500 287h655v-287h-1094v264l635 740h-628v286h1071v-270zM723 1368h-238l111 291h326z" />
    <glyph glyph-name="zacute" unicode="&#x17a;" horiz-adv-x="925" 
d="M459 674h-398v239h801v-225l-411 -448h421v-240h-819v227zM578 999h-238l111 291h325z" />
    <glyph glyph-name="Zdotaccent" unicode="&#x17b;" horiz-adv-x="1216" 
d="M500 287h655v-287h-1094v264l635 740h-628v286h1071v-270zM440 1368v291h336v-291h-336z" />
    <glyph glyph-name="zdotaccent" unicode="&#x17c;" horiz-adv-x="925" 
d="M459 674h-398v239h801v-225l-411 -448h421v-240h-819v227zM295 999v291h336v-291h-336z" />
    <glyph glyph-name="Zcaron" unicode="&#x17d;" horiz-adv-x="1216" 
d="M500 287h655v-287h-1094v264l635 740h-628v286h1071v-270zM764 1368h-311l-177 291h209l123 -113l123 113h209z" />
    <glyph glyph-name="zcaron" unicode="&#x17e;" horiz-adv-x="925" 
d="M459 674h-398v239h801v-225l-411 -448h421v-240h-819v227zM618 999h-311l-176 291h209l123 -112l123 112h209z" />
    <glyph glyph-name="florin" unicode="&#x192;" horiz-adv-x="935" 
d="M686 885l-24 -115h176v-240h-228l-100 -485q-34 -161 -137.5 -240t-259.5 -79q-48 0 -113 10v239q18 -4 49 -4q69 0 98.5 42t49.5 137l79 380h-153v240h203l47 219q33 156 138 241t251 85q56 0 133 -17v-239q-36 4 -49 4q-72 0 -106.5 -44t-53.5 -134z" />
    <glyph glyph-name="Aringacute" unicode="&#x1fa;" horiz-adv-x="1417" 
d="M514 1290h389l514 -1290h-370l-97 250h-504l-96 -250h-350zM500 1507q0 78 55 128.5t145 50.5q91 0 147 -50.5t56 -128.5t-56 -128t-147 -50q-90 0 -145 50t-55 128zM823 1726h-237l84 236h325zM694 891l-147 -381h303l-148 381h-8zM631 1507q0 -63 69 -63q72 0 72 63
q0 64 -72 64q-69 0 -69 -64z" />
    <glyph glyph-name="aringacute" unicode="&#x1fb;" horiz-adv-x="1079" 
d="M653 1368h-237l84 236h325zM461 1149q0 -64 69 -64q72 0 72 64q0 63 -72 63q-69 0 -69 -63zM330 1149q0 78 55 128t145 50q91 0 147 -50t56 -128t-56 -128t-147 -50q-90 0 -145 50t-55 128zM618 381v14l-135 -24q-64 -13 -95.5 -36t-31.5 -65q0 -35 25.5 -56t67.5 -21
q73 0 121 50.5t48 137.5zM944 580v-312q0 -67 55 -67q36 0 74 14v-176q-84 -59 -207 -59q-86 0 -147 42t-84 119q-81 -161 -303 -161q-135 0 -215 65.5t-80 181.5q0 126 83 192.5t242 94.5l256 43v14q0 121 -114 121q-102 0 -125 -114l-307 20q23 156 138 248t314 92
q192 0 306 -88t114 -270z" />
    <glyph glyph-name="AEacute" unicode="&#x1fc;" horiz-adv-x="2037" 
d="M748 1290h1214v-286h-655v-211h505v-283h-505v-223h673v-287h-1015v291h-437l-163 -291h-365zM1460 1368h-237l110 291h326zM956 1049l-282 -498h291v498h-9z" />
    <glyph glyph-name="aeacute" unicode="&#x1fd;" horiz-adv-x="1599" 
d="M492 938q195 0 292 -117q47 52 131.5 84.5t171.5 32.5q147 0 255 -63t160 -165.5t52 -228.5v-88h-647q14 -90 68.5 -130t128.5 -40q134 0 178 103l266 -25q-35 -156 -154.5 -241t-301.5 -85q-244 0 -367 170q-49 -75 -143.5 -120t-219.5 -45q-152 0 -238.5 75.5
t-86.5 192.5q0 151 119 226t333 75h146v14q0 60 -34.5 94.5t-94.5 34.5q-54 0 -91.5 -28t-49.5 -74l-287 16q22 150 137 241t277 91zM461 193q75 0 124.5 47.5t49.5 128.5v24h-127q-152 0 -152 -110q0 -41 27.5 -65.5t77.5 -24.5zM1083 700q-139 0 -172 -151h328
q-3 65 -44 108t-112 43zM909 999h-237l110 291h326z" />
    <glyph glyph-name="Oslashacute" unicode="&#x1fe;" horiz-adv-x="1421" 
d="M1380 645q0 -194 -89 -348t-241.5 -238t-338.5 -84q-192 0 -346 88l-109 -139l-145 105l110 145q-180 186 -180 471q0 194 89 348t241.5 238t339.5 84q178 0 329 -80l103 131l145 -104l-102 -134q93 -90 143.5 -213t50.5 -270zM1022 645q0 123 -47 209l-416 -537
q64 -34 152 -34q142 0 226.5 98.5t84.5 263.5zM399 645q0 -109 39 -192l406 526q-63 29 -133 29q-142 0 -227 -99t-85 -264zM825 1368h-237l110 291h326z" />
    <glyph glyph-name="oslashacute" unicode="&#x1ff;" horiz-adv-x="1081" 
d="M1040 457q0 -214 -138.5 -348t-360.5 -134q-142 0 -258 58l-86 -105l-115 90l84 103q-125 131 -125 336q0 213 138.5 347t361.5 134q147 0 256 -59l88 104l114 -88l-86 -104q127 -133 127 -334zM655 999h-237l110 291h326zM350 457q0 -55 12 -101l263 314q-37 18 -84 18
q-93 0 -142 -62.5t-49 -168.5zM731 457q0 57 -14 98l-260 -313q33 -17 84 -17q91 0 140.5 63t49.5 169z" />
    <glyph glyph-name="Scommaaccent" unicode="&#x218;" horiz-adv-x="1241" 
d="M41 457l319 10q6 -77 47 -127.5t99.5 -70t134.5 -19.5q91 0 145 30.5t54 84.5q0 19 -5 33t-19.5 24.5t-25 17t-37 13t-39.5 9.5t-48 9l-236 41q-167 31 -262.5 126t-95.5 257q0 196 141.5 308t384.5 112q264 0 407 -121.5t148 -339.5l-319 -6q-7 96 -71.5 145t-168.5 49
q-86 0 -133 -31t-47 -85q0 -42 32 -64t97 -33l243 -43q394 -69 394 -399q0 -133 -73 -227.5t-192.5 -139.5t-273.5 -45q-269 0 -434.5 127t-165.5 355zM477 -272v202h291v-149q0 -120 -73 -173.5t-218 -53.5v108q60 0 86 14t27 52h-113z" />
    <glyph glyph-name="scommaaccent" unicode="&#x219;" horiz-adv-x="944" 
d="M25 297l288 4q9 -57 54 -88t120 -31q54 0 83.5 17.5t29.5 46.5q0 56 -84 69l-135 21q-174 28 -256 93.5t-82 199.5q0 137 112.5 223t301.5 86q196 0 310 -81.5t128 -225.5l-272 -8q-9 50 -53 78t-119 28q-47 0 -74 -17t-27 -48q0 -22 15.5 -35.5t40.5 -16.5l178 -30
q323 -52 323 -303q0 -144 -113.5 -224t-310.5 -80t-321 81t-137 241zM332 -272v202h291v-149q0 -120 -73 -173.5t-218 -53.5v108q59 0 85 14t27 52h-112z" />
    <glyph glyph-name="uni0237" unicode="&#x237;" horiz-adv-x="512" 
d="M422 913v-944q0 -164 -89 -242.5t-253 -78.5q-173 0 -262 65l51 201q63 -39 133 -39q88 0 88 111v927h332z" />
    <glyph glyph-name="circumflex" unicode="&#x2c6;" 
d="M356 1290h312l176 -291h-209l-123 113l-123 -113h-209z" />
    <glyph glyph-name="caron" unicode="&#x2c7;" 
d="M668 999h-312l-176 291h209l123 -112l123 112h209z" />
    <glyph glyph-name="breve" unicode="&#x2d8;" 
d="M512 999q-136 0 -213.5 77.5t-77.5 213.5h187q0 -47 28.5 -70.5t75.5 -23.5t75.5 23.5t28.5 70.5h187q0 -136 -77.5 -213.5t-213.5 -77.5z" />
    <glyph glyph-name="dotaccent" unicode="&#x2d9;" 
d="M344 999v291h336v-291h-336z" />
    <glyph glyph-name="ring" unicode="&#x2da;" 
d="M442 1182q0 -32 18 -51t52 -19t52 19t18 51t-18 50.5t-52 18.5t-52 -18.5t-18 -50.5zM311 1182q0 84 55.5 138t145.5 54t145.5 -54t55.5 -138t-55.5 -138.5t-145.5 -54.5t-145.5 54.5t-55.5 138.5z" />
    <glyph glyph-name="ogonek" unicode="&#x2db;" 
d="M479 25h189q-10 -9 -27.5 -24.5t-24.5 -22.5t-20 -19t-18 -17.5t-13.5 -15t-12 -15.5t-7.5 -14t-5 -15t-1 -15q0 -26 15 -39.5t40 -13.5q37 0 90 24v-147q-75 -49 -166 -49t-142.5 40t-51.5 107q0 132 155 236z" />
    <glyph glyph-name="tilde" unicode="&#x2dc;" 
d="M354 999h-153q0 134 48 215.5t136 81.5q50 0 118.5 -37.5t100.5 -37.5q61 0 66 69h153q0 -134 -48 -215.5t-136 -81.5q-50 0 -118.5 38t-100.5 38q-26 0 -44.5 -16.5t-21.5 -53.5z" />
    <glyph glyph-name="hungarumlaut" unicode="&#x2dd;" 
d="M358 999h-215l82 291h303zM711 999h-215l82 291h303z" />
    <glyph glyph-name="Wgrave" unicode="&#x1e80;" horiz-adv-x="1849" 
d="M1087 1290l213 -809h9l204 809h336l-338 -1290h-370l-215 815h-8l-216 -815h-364l-338 1290h348l205 -809h8l213 809h313zM1044 1368h-237l-199 291h326z" />
    <glyph glyph-name="wgrave" unicode="&#x1e81;" horiz-adv-x="1495" 
d="M895 913l133 -518h8l164 518h299l-289 -913h-325l-133 516h-9l-133 -516h-325l-289 913h330l163 -518h9l133 518h264zM868 999h-237l-199 291h326z" />
    <glyph glyph-name="Wacute" unicode="&#x1e82;" horiz-adv-x="1849" 
d="M1087 1290l213 -809h9l204 809h336l-338 -1290h-370l-215 815h-8l-216 -815h-364l-338 1290h348l205 -809h8l213 809h313zM1038 1368h-237l110 291h326z" />
    <glyph glyph-name="wacute" unicode="&#x1e83;" horiz-adv-x="1495" 
d="M895 913l133 -518h8l164 518h299l-289 -913h-325l-133 516h-9l-133 -516h-325l-289 913h330l163 -518h9l133 518h264zM862 999h-237l110 291h326z" />
    <glyph glyph-name="Wdieresis" unicode="&#x1e84;" horiz-adv-x="1849" 
d="M1087 1290l213 -809h9l204 809h336l-338 -1290h-370l-215 815h-8l-216 -815h-364l-338 1290h348l205 -809h8l213 809h313zM586 1368v291h291v-291h-291zM971 1368v291h291v-291h-291z" />
    <glyph glyph-name="wdieresis" unicode="&#x1e85;" horiz-adv-x="1495" 
d="M895 913l133 -518h8l164 518h299l-289 -913h-325l-133 516h-9l-133 -516h-325l-289 913h330l163 -518h9l133 518h264zM410 999v291h290v-291h-290zM795 999v291h290v-291h-290z" />
    <glyph glyph-name="Ygrave" unicode="&#x1ef2;" horiz-adv-x="1329" 
d="M678 825l276 465h375l-495 -801v-489h-338v489l-496 801h387zM784 1368h-237l-199 291h326z" />
    <glyph glyph-name="ygrave" unicode="&#x1ef3;" horiz-adv-x="1083" 
d="M563 -328h-325l131 316l-373 925h348l203 -534h8l207 534h325zM662 999h-238l-199 291h326z" />
    <glyph glyph-name="endash" unicode="&#x2013;" 
d="M94 412v219h832v-219h-832z" />
    <glyph glyph-name="emdash" unicode="&#x2014;" horiz-adv-x="2048" 
d="M94 412v219h1860v-219h-1860z" />
    <glyph glyph-name="quoteleft" unicode="&#x2018;" horiz-adv-x="468" 
d="M408 1020v-307h-347v286q0 148 86 217t261 74v-157q-78 -3 -116.5 -28.5t-39.5 -84.5h156z" />
    <glyph glyph-name="quoteright" unicode="&#x2019;" horiz-adv-x="468" 
d="M61 983v307h347v-286q0 -148 -86 -217t-261 -74v157q78 3 116.5 28.5t39.5 84.5h-156z" />
    <glyph glyph-name="quotesinglbase" unicode="&#x201a;" horiz-adv-x="468" 
d="M61 0v307h347v-287q0 -148 -85.5 -216.5t-261.5 -73.5v157q78 3 116.5 28.5t39.5 84.5h-156z" />
    <glyph glyph-name="quotedblleft" unicode="&#x201c;" horiz-adv-x="905" 
d="M408 1020v-307h-347v286q0 148 86 217t261 74v-157q-78 -3 -116.5 -28.5t-39.5 -84.5h156zM844 1020v-307h-344v286q0 148 85 217t259 74v-157q-77 -3 -115.5 -28.5t-38.5 -84.5h154z" />
    <glyph glyph-name="quotedblright" unicode="&#x201d;" horiz-adv-x="905" 
d="M500 983v307h344v-286q0 -148 -85 -217t-259 -74v157q77 3 115.5 28.5t39.5 84.5h-155zM61 983v307h347v-286q0 -148 -86 -217t-261 -74v157q78 3 116.5 28.5t39.5 84.5h-156z" />
    <glyph glyph-name="quotedblbase" unicode="&#x201e;" horiz-adv-x="905" 
d="M500 0v307h344v-287q0 -148 -85 -216.5t-259 -73.5v157q77 3 115.5 28.5t39.5 84.5h-155zM61 0v307h347v-287q0 -148 -85.5 -216.5t-261.5 -73.5v157q78 3 116.5 28.5t39.5 84.5h-156z" />
    <glyph glyph-name="dagger" unicode="&#x2020;" horiz-adv-x="704" 
d="M61 918v198h189v174h205v-174h188v-198h-188v-371h-205v371h-189z" />
    <glyph glyph-name="daggerdbl" unicode="&#x2021;" horiz-adv-x="724" 
d="M72 680v178h194v121h-194v178h194v133h193v-133h194v-178h-194v-121h194v-178h-194v-133h-193v133h-194z" />
    <glyph glyph-name="bullet" unicode="&#x2022;" horiz-adv-x="819" 
d="M758 530q0 -153 -100.5 -250.5t-247.5 -97.5t-248 97.5t-101 250.5t101 251t248 98t247.5 -98t100.5 -251z" />
    <glyph glyph-name="ellipsis" unicode="&#x2026;" horiz-adv-x="1425" 
d="M61 0v352h353v-352h-353zM537 0v352h352v-352h-352zM1012 0v352h352v-352h-352z" />
    <glyph glyph-name="perthousand" unicode="&#x2030;" horiz-adv-x="2320" 
d="M264 954q0 -93 28 -135.5t85 -42.5t84.5 42.5t27.5 135.5q0 94 -27.5 136.5t-84.5 42.5t-85 -43t-28 -136zM41 954q0 163 98.5 262t237.5 99t237.5 -99t98.5 -262t-98.5 -261.5t-237.5 -98.5t-237.5 98.5t-98.5 261.5zM1364 336q0 93 -28 135.5t-85 42.5t-84.5 -42.5
t-27.5 -135.5t27.5 -135.5t84.5 -42.5t85 42.5t28 135.5zM1587 336q0 -163 -98.5 -262t-237.5 -99t-237.5 99t-98.5 262t98.5 261.5t237.5 98.5t237.5 -98.5t98.5 -261.5zM2093 336q0 93 -28 135.5t-85 42.5t-84.5 -42.5t-27.5 -135.5t27.5 -135.5t84.5 -42.5t85 42.5
t28 135.5zM2316 336q0 -163 -98.5 -262t-237.5 -99t-237 99t-98 262t98 261.5t237 98.5t237.5 -98.5t98.5 -261.5zM1268 1290l-680 -1290h-228l680 1290h228z" />
    <glyph glyph-name="guilsinglleft" unicode="&#x2039;" horiz-adv-x="518" 
d="M61 315v295l396 256v-278l-197 -125l197 -125v-279z" />
    <glyph glyph-name="guilsinglright" unicode="&#x203a;" horiz-adv-x="518" 
d="M457 610v-295l-396 -256v279l197 125l-197 125v278z" />
    <glyph glyph-name="fraction" unicode="&#x2044;" horiz-adv-x="1026" 
d="M1014 1290l-774 -1290h-224l775 1290h223z" />
    <glyph glyph-name="Euro" unicode="&#x20ac;" horiz-adv-x="1312" 
d="M31 428v164h98v98h-98v164h119q46 220 194.5 340.5t378.5 120.5q125 0 226.5 -43t168 -118t104 -175t42.5 -217l-318 -12q-3 112 -62 189t-161 77q-170 0 -225 -162h280l-20 -164h-287v-98h274l-20 -164h-225q57 -154 223 -154q105 0 162.5 71t60.5 196l318 -15
q-5 -241 -151.5 -396t-389.5 -155q-229 0 -376 118t-195 335h-121z" />
    <glyph glyph-name="uni2117" unicode="&#x2117;" horiz-adv-x="1482" 
d="M72 645q0 190 90 344.5t243 240t336 85.5t336 -85.5t243.5 -240t90.5 -344.5t-90.5 -344.5t-243.5 -240t-336 -85.5t-336 85.5t-243 240t-90 344.5zM174 645q0 -121 45 -228t121.5 -182t181 -118t219.5 -43q154 0 284 73t207 205t77 293t-77 293t-207 205.5t-284 73.5
t-284 -73.5t-206.5 -205.5t-76.5 -293zM676 670h102q131 0 131 90q0 94 -131 94h-102v-184zM676 494v-244h-215v780h342q154 0 238.5 -69.5t84.5 -196.5q0 -130 -84.5 -200t-238.5 -70h-127z" />
    <glyph glyph-name="trademark" unicode="&#x2122;" horiz-adv-x="1394" 
d="M389 758h-176v379h-172v153h524v-153h-176v-379zM977 758h-121l-76 321h-4v-321h-164v532h244l70 -315h4l65 315h236v-532h-174v321h-4z" />
    <glyph glyph-name="uni2153" unicode="&#x2153;" horiz-adv-x="1671" 
d="M31 995v170q86 0 135 30t72 95h202v-827h-254v532h-155zM1350 248q0 35 -25 53t-65 18q-44 0 -56 -2v179q12 -2 58 -2q31 0 52 19t21 52q0 72 -69 72q-42 0 -64 -33t-22 -82l-244 10q0 132 91.5 222t246.5 90q147 0 230 -69t83 -183q0 -71 -42 -118.5t-101 -53.5
q82 -15 124 -65.5t42 -127.5q0 -117 -90 -180t-242 -63q-164 0 -257 82t-93 221l250 -8q3 -89 100 -89q29 0 50.5 15.5t21.5 42.5zM1239 1290l-774 -1290h-223l774 1290h223z" />
    <glyph glyph-name="uni2154" unicode="&#x2154;" horiz-adv-x="1898" 
d="M1577 248q0 35 -25 53t-65 18q-43 0 -55 -2v179q12 -2 57 -2q31 0 52.5 19.5t21.5 51.5q0 72 -70 72q-42 0 -64 -33t-22 -82l-244 10q0 132 91.5 222t246.5 90q147 0 230.5 -69t83.5 -183q0 -71 -42 -118.5t-102 -53.5q82 -15 124 -65.5t42 -127.5q0 -117 -90 -180
t-242 -63q-164 0 -257 82t-93 221l250 -8q3 -89 100 -89q29 0 50.5 15.5t21.5 42.5zM416 674h284v-211h-649v188l228 172q95 74 123 110.5t28 86.5q0 70 -68 70q-71 0 -71 -99q0 -35 8 -67l-248 8q-10 68 -10 78q0 133 91.5 215t238.5 82q149 0 237 -76t88 -195
q0 -69 -22 -119t-58.5 -85.5t-113.5 -94.5zM1466 1290l-774 -1290h-223l774 1290h223z" />
    <glyph glyph-name="uni215B" unicode="&#x215b;" horiz-adv-x="1699" 
d="M31 995v170q86 0 135 30t72 95h202v-827h-254v532h-155zM1292 659q-37 0 -57.5 -19.5t-20.5 -53.5q0 -70 78 -70q80 0 80 70q0 34 -21.5 53.5t-58.5 19.5zM1292 342q-45 0 -70.5 -21.5t-25.5 -62.5t25.5 -62.5t70.5 -21.5q44 0 69 21.5t25 62.5t-25 62.5t-69 21.5z
M1292 -16q-167 0 -258.5 64.5t-91.5 178.5q0 76 39.5 130t108.5 73q-64 29 -94.5 71.5t-30.5 110.5q0 106 90 169t237 63q144 0 234 -63t90 -169q0 -68 -30.5 -110.5t-92.5 -71.5q68 -19 106.5 -73t38.5 -130q0 -113 -91 -178t-255 -65zM1239 1290l-774 -1290h-223l774 1290
h223z" />
    <glyph glyph-name="uni215C" unicode="&#x215c;" horiz-adv-x="1890" 
d="M1483 659q-37 0 -57.5 -19.5t-20.5 -53.5q0 -70 78 -70q80 0 80 70q0 34 -21.5 53.5t-58.5 19.5zM1483 342q-45 0 -71 -21.5t-26 -62.5t26 -62.5t71 -21.5q44 0 69 21.5t25 62.5t-25 62.5t-69 21.5zM1483 -16q-167 0 -258.5 64.5t-91.5 178.5q0 77 39 130.5t108 72.5
q-64 29 -94.5 71.5t-30.5 110.5q0 106 90 169t238 63q144 0 233.5 -63t89.5 -169q0 -68 -30.5 -110.5t-92.5 -71.5q68 -19 107 -73t39 -130q0 -113 -91 -178t-255 -65zM463 711q0 35 -25 53t-65 18q-45 0 -56 -2v178q12 -2 58 -2q31 0 52.5 19.5t21.5 52.5q0 72 -70 72
q-42 0 -64 -33t-22 -82l-244 10q0 132 91.5 222t246.5 90q147 0 230 -69t83 -183q0 -71 -42 -118.5t-101 -53.5q82 -15 124 -65.5t42 -127.5q0 -117 -90 -180.5t-242 -63.5q-164 0 -257 82.5t-93 221.5l250 -9q3 -88 100 -88q29 0 50.5 15.5t21.5 42.5zM1430 1290
l-775 -1290h-223l774 1290h224z" />
    <glyph glyph-name="uni215D" unicode="&#x215d;" horiz-adv-x="1890" 
d="M1483 659q-37 0 -57.5 -19.5t-20.5 -53.5q0 -70 78 -70q80 0 80 70q0 34 -21.5 53.5t-58.5 19.5zM1483 342q-45 0 -71 -21.5t-26 -62.5t26 -62.5t71 -21.5q44 0 69 21.5t25 62.5t-25 62.5t-69 21.5zM1483 -16q-167 0 -258.5 64.5t-91.5 178.5q0 77 39 130.5t108 72.5
q-64 29 -94.5 71.5t-30.5 110.5q0 106 90 169t238 63q144 0 233.5 -63t89.5 -169q0 -68 -30.5 -110.5t-92.5 -71.5q68 -19 107 -73t39 -130q0 -113 -91 -178t-255 -65zM647 1290v-200h-344q-3 -44 -12 -89q52 27 131 27q140 0 214.5 -79.5t74.5 -207.5q0 -137 -91 -216
t-233 -79q-167 0 -253 80t-81 226l244 -17q1 -39 25.5 -60.5t64.5 -21.5t65 23t25 65q0 41 -23.5 70t-66.5 29q-53 0 -80 -37l-244 18q52 326 54 469h530zM1430 1290l-775 -1290h-223l774 1290h224z" />
    <glyph glyph-name="uni215E" unicode="&#x215e;" horiz-adv-x="1726" 
d="M1319 659q-37 0 -57.5 -19.5t-20.5 -53.5q0 -70 78 -70q80 0 80 70q0 34 -21.5 53.5t-58.5 19.5zM1319 342q-45 0 -70.5 -21.5t-25.5 -62.5t25.5 -62.5t70.5 -21.5q44 0 69 21.5t25 62.5t-25 62.5t-69 21.5zM1319 -16q-167 0 -258.5 64.5t-91.5 178.5q0 77 39 130.5
t108 72.5q-64 29 -94.5 71.5t-30.5 110.5q0 106 90 169t238 63q144 0 233.5 -63t89.5 -169q0 -68 -30 -110.5t-92 -71.5q68 -19 106.5 -73t38.5 -130q0 -113 -91 -178t-255 -65zM391 1063h-371v227h646v-207q-39 -38 -69.5 -73.5t-52 -73t-37 -67t-25 -71.5t-15 -68
t-7.5 -75.5t-2.5 -75.5t-0.5 -85v-31h-281q3 202 48.5 333t166.5 267zM1266 1290l-774 -1290h-224l774 1290h224z" />
    <glyph glyph-name="minus" unicode="&#x2212;" horiz-adv-x="1253" 
d="M86 498v276h1081v-276h-1081z" />
    <glyph glyph-name="approxequal" unicode="&#x2248;" horiz-adv-x="1298" 
d="M109 672v252q150 96 290 96q92 0 247 -47t247 -47q149 0 297 98v-254q-149 -96 -297 -96q-92 0 -247 47t-247 47q-140 0 -290 -96zM109 260v252q148 98 290 98q92 0 247 -48t247 -48q149 0 297 98v-254q-149 -96 -297 -96q-92 0 -247 47t-247 47q-140 0 -290 -96z" />
    <glyph glyph-name="notequal" unicode="&#x2260;" horiz-adv-x="1298" 
d="M109 741v242h643l149 236h227l-149 -236h211v-242h-363l-127 -200h490v-242h-643l-148 -236h-229l149 236h-210v242h362l127 200h-489z" />
    <glyph glyph-name="lessequal" unicode="&#x2264;" horiz-adv-x="991" 
d="M84 33v274h823v-274h-823zM84 621v366l823 273v-304l-549 -151l549 -154v-301z" />
    <glyph glyph-name="greaterequal" unicode="&#x2265;" horiz-adv-x="991" 
d="M907 307v-274h-823v274h823zM907 987v-366l-823 -271v301l547 154l-547 151v304z" />
    <glyph glyph-name="i.dot" horiz-adv-x="512" 
d="M90 913h332v-913h-332v913zM88 999v291h336v-291h-336z" />
    <glyph glyph-name="space_uni0326" 
d="M367 -272v202h290v-149q0 -120 -72.5 -173.5t-217.5 -53.5v108q59 0 85 14t27 52h-112z" />
    <glyph glyph-name="space_uni0326.alt" 
d="M657 1202v-203h-290v150q0 120 72.5 173.5t217.5 53.5v-108q-59 0 -85 -14t-27 -52h112z" />
    <glyph glyph-name="space_dotbelowcomb" 
d="M344 -362v290h336v-290h-336z" />
    <glyph glyph-name="caron.Slovak" 
d="M549 985h-209l27 305h317z" />
    <glyph glyph-name="cedilla.alt" horiz-adv-x="1705" 
d="M1092 -209q0 -77 -71 -113t-175 -36q-73 0 -135.5 19t-98.5 48l35 80q75 -45 172 -45q82 0 82 43q0 38 -50.5 43.5t-90.5 -14.5l-64 22l129 185h107l-76 -97q96 18 166 -18t70 -117z" />
    <glyph glyph-name="grave.cap" 
d="M729 1368h-237l-199 291h325z" />
    <glyph glyph-name="acute.cap" 
d="M530 1368h-237l110 291h326z" />
    <glyph glyph-name="circumflex.cap" 
d="M356 1659h312l176 -291h-209l-123 113l-123 -113h-209z" />
    <glyph glyph-name="caron.cap" 
d="M668 1368h-312l-176 291h209l123 -113l123 113h209z" />
    <glyph glyph-name="tilde.cap" 
d="M354 1368h-153q0 134 48 215.5t136 81.5q50 0 118.5 -38t100.5 -38q26 0 44.5 16.5t21.5 53.5h153q0 -134 -48 -215.5t-136 -81.5q-50 0 -118.5 38t-100.5 38q-26 0 -44.5 -16.5t-21.5 -53.5z" />
    <glyph glyph-name="macron.cap" 
d="M219 1376v221h584v-221h-584z" />
    <glyph glyph-name="breve.cap" 
d="M512 1368q-136 0 -213.5 77t-77.5 214h187q0 -47 28.5 -70.5t75.5 -23.5t75.5 23.5t28.5 70.5h187q0 -137 -77.5 -214t-213.5 -77z" />
    <glyph glyph-name="dotaccent.cap" 
d="M344 1368v291h336v-291h-336z" />
    <glyph glyph-name="dieresis.cap" 
d="M174 1368v291h291v-291h-291zM559 1368v291h291v-291h-291z" />
    <glyph glyph-name="ring.cap" 
d="M442 1550q0 -32 18 -50.5t52 -18.5t52 18.5t18 50.5t-18 51t-52 19t-52 -19t-18 -51zM311 1550q0 84 55.5 138.5t145.5 54.5t145.5 -54.5t55.5 -138.5t-55.5 -138t-145.5 -54t-145.5 54t-55.5 138z" />
    <glyph glyph-name="hungarumlaut.cap" 
d="M358 1368h-215l82 291h303zM711 1368h-215l82 291h303z" />
    <glyph glyph-name="exclamdown.cap" horiz-adv-x="475" 
d="M61 938v352h353v-352h-353zM414 0h-353v332l70 528h213l70 -528v-332z" />
    <glyph glyph-name="questiondown.cap" horiz-adv-x="1073" 
d="M365 860h321q-6 -159 -135 -262q-41 -33 -59 -49t-42.5 -43.5t-34 -54.5t-9.5 -60q0 -52 33.5 -86.5t95.5 -34.5q83 0 120 51t37 136q0 59 -14 106l340 -10q16 -82 16 -121q0 -206 -139 -331.5t-363 -125.5q-228 0 -359.5 113t-131.5 285q0 60 16.5 111.5t50 94.5
t67.5 74t85 68q52 39 77 70.5t28 68.5zM702 1290v-352h-352v352h352z" />
    <glyph glyph-name="guilsinglleft.cap" horiz-adv-x="518" 
d="M61 479v295l396 256v-278l-197 -125l197 -125v-279z" />
    <glyph glyph-name="guilsinglright.cap" horiz-adv-x="518" 
d="M457 774v-295l-396 -256v279l197 125l-197 125v278z" />
    <glyph glyph-name="guillemotleft.cap" horiz-adv-x="991" 
d="M61 479v295l396 256v-278l-197 -125l197 -125v-279zM535 479v295l395 256v-278l-197 -125l197 -125v-279z" />
    <glyph glyph-name="guillemotright.cap" horiz-adv-x="991" 
d="M457 774v-295l-396 -256v279l197 125l-197 125v278zM930 774v-295l-395 -256v279l196 125l-196 125v278z" />
    <glyph glyph-name="slash.cap" horiz-adv-x="796" 
d="M0 0l487 1290h310l-488 -1290h-309z" />
    <glyph glyph-name="backslash.cap" horiz-adv-x="796" 
d="M309 1290l488 -1290h-310l-487 1290h309z" />
    <glyph glyph-name="bar.cap" horiz-adv-x="485" 
d="M98 0v1290h289v-1290h-289z" />
    <glyph glyph-name="periodcentered.cap" horiz-adv-x="540" 
d="M94 471v352h352v-352h-352z" />
    <glyph glyph-name="bullet.cap" horiz-adv-x="819" 
d="M758 653q0 -153 -100.5 -250.5t-247.5 -97.5t-248 97.5t-101 250.5t101 250.5t248 97.5t247.5 -97.5t100.5 -250.5z" />
    <glyph glyph-name="hyphen.cap" horiz-adv-x="737" 
d="M94 504v289h549v-289h-549z" />
    <glyph glyph-name="endash.cap" 
d="M94 535v219h832v-219h-832z" />
    <glyph glyph-name="emdash.cap" horiz-adv-x="2048" 
d="M94 535v219h1860v-219h-1860z" />
    <glyph glyph-name="parenleft.cap" horiz-adv-x="706" 
d="M92 631q0 208 78 410t215 352h301q-151 -172 -213.5 -361t-62.5 -401t62.5 -401t213.5 -361h-301q-137 150 -215 352t-78 410z" />
    <glyph glyph-name="parenright.cap" horiz-adv-x="706" 
d="M614 631q0 -209 -77.5 -410.5t-214.5 -351.5h-302q151 173 214 361.5t63 400.5t-63 400.5t-214 361.5h302q137 -150 214.5 -351.5t77.5 -410.5z" />
    <glyph glyph-name="bracketleft.cap" horiz-adv-x="663" 
d="M438 1165v-1069h185v-227h-480v1524h480v-228h-185z" />
    <glyph glyph-name="bracketright.cap" horiz-adv-x="663" 
d="M225 96v1069h-184v228h479v-1524h-479v227h184z" />
    <glyph glyph-name="braceleft.cap" horiz-adv-x="702" 
d="M72 518v225h51q61 0 78.5 30.5t17.5 119.5v217q0 139 73 211t200 72h170v-228h-82q-41 0 -52.5 -19t-11.5 -56v-218q0 -112 -40.5 -169t-135.5 -72q95 -15 135.5 -72.5t40.5 -171.5v-215q0 -18 1.5 -29t7.5 -23t19.5 -18t35.5 -6h82v-227h-170q-127 0 -200 72t-73 211
v217q0 89 -17.5 119t-78.5 30h-51z" />
    <glyph glyph-name="braceright.cap" horiz-adv-x="702" 
d="M631 743v-225h-51q-61 0 -79 -30.5t-18 -118.5v-217q0 -139 -72.5 -211t-199.5 -72h-170v227h82q29 0 43.5 12t17 25.5t2.5 38.5v215q0 114 40.5 171.5t135.5 72.5q-95 15 -135.5 72t-40.5 169v218q0 18 -1.5 28.5t-7 23t-19 18t-35.5 5.5h-82v228h170q127 0 199.5 -72
t72.5 -211v-217q0 -88 18 -119t79 -31h51z" />
    <glyph glyph-name="at.cap" horiz-adv-x="1593" 
d="M1163 432q193 0 193 334q0 202 -123 313t-359 111q-286 0 -454 -170t-168 -459q0 -232 142 -354.5t382 -122.5q234 0 422 92l49 -147q-195 -117 -473 -117q-212 0 -374.5 74.5t-255.5 222.5t-93 352q0 229 100.5 411.5t289 288t433.5 105.5q308 0 490 -168t182 -432
q0 -121 -37.5 -217.5t-100 -155t-140 -89t-162.5 -30.5q-181 0 -240 132q-38 -68 -88.5 -100t-126.5 -32q-123 0 -195.5 78t-72.5 217q0 184 100 311.5t258 127.5q77 0 128.5 -30t74.5 -81l27 94h256l-115 -459q-25 -100 51 -100zM866 625l8 39q15 81 -2 121t-73 40
q-60 0 -100 -74.5t-40 -162.5q0 -121 80 -121q45 0 79 37.5t48 120.5z" />
    <glyph glyph-name="Euro.lt" horiz-adv-x="1228" 
d="M31 428v164h86v53v45h-86v164h104q43 221 184.5 341t370.5 120q125 0 223.5 -42.5t161 -118.5t96.5 -175t39 -217l-317 -12q-2 75 -22 132.5t-66.5 95.5t-114.5 38q-87 0 -137 -40.5t-74 -121.5h266l-20 -164h-266v-45v-53h254l-21 -164h-211q24 -77 74.5 -115.5
t134.5 -38.5q196 0 203 267l317 -15q-3 -159 -63 -282.5t-178 -196t-279 -72.5q-227 0 -367.5 117.5t-185.5 335.5h-106z" />
    <glyph glyph-name="dollar.lt" horiz-adv-x="1228" 
d="M45 457l311 10q6 -85 55 -138t126 -75v248l-103 18q-167 28 -262.5 120.5t-95.5 254.5q0 182 123 291.5t338 124.5v157h163v-159q218 -22 335 -140.5t122 -314.5l-305 -6q-6 70 -46.5 119t-105.5 71v-245l91 -17q200 -35 296.5 -132t96.5 -257q0 -186 -134 -291.5
t-350 -118.5v-182h-163v187q-226 24 -359 147.5t-133 327.5zM856 365q0 49 -39 73t-117 37v-233q156 16 156 123zM401 926q0 -47 35 -70t101 -35v230q-136 -19 -136 -125z" />
    <glyph glyph-name="cent.lt" horiz-adv-x="1228" 
d="M563 -190v170q-200 19 -321 147.5t-121 329.5q0 200 121.5 329t320.5 148v168h172v-174q161 -28 259 -134.5t114 -252.5l-268 -15q-23 111 -105 154v-447q83 47 105 156l268 -16q-15 -149 -113 -254.5t-260 -132.5v-176h-172zM442 457q0 -192 121 -236v471
q-121 -41 -121 -235z" />
    <glyph glyph-name="sterling.lt" horiz-adv-x="1228" 
d="M559 901q0 -85 41 -172h238v-186h-168q8 -54 8 -88q0 -65 -14 -144q72 -30 137 -30q92 0 126 35.5t34 134.5l233 -13q46 -463 -311 -463q-180 0 -336 111q-105 -111 -266 -111q-115 0 -186.5 69t-71.5 185q0 108 71.5 174t184.5 66q47 0 110 -18q-6 37 -29 92h-245v186
h131q-47 79 -47 182q0 183 130 293.5t330 110.5q233 0 359.5 -129t126.5 -350l-287 -15q-5 104 -49 162.5t-121 58.5q-61 0 -95 -37.5t-34 -103.5zM285 170q56 0 84 66q-55 45 -90 45q-60 0 -60 -56q0 -25 19 -40t47 -15z" />
    <glyph glyph-name="yen.lt" horiz-adv-x="1228" 
d="M111 510v203h227l-305 577h377l219 -459l205 459h364l-307 -577h229v-203h-336v-100h336v-203h-336v-207h-338v207h-335v203h335v100h-335z" />
    <glyph glyph-name="florin.lt" horiz-adv-x="1228" 
d="M852 885l-25 -115h177v-240h-228l-100 -485q-34 -161 -137.5 -240t-259.5 -79q-48 0 -113 10v239q18 -4 49 -4q69 0 98 42t49 137l80 380h-153v240h203l47 219q33 156 138 241t251 85q56 0 133 -17v-239q-36 4 -49 4q-72 0 -106.5 -44t-53.5 -134z" />
    <glyph glyph-name="zero.lt" horiz-adv-x="1228" 
d="M1178 645q0 -320 -148.5 -495t-415.5 -175q-265 0 -414 175.5t-149 494.5t149 494.5t414 175.5q267 0 415.5 -175t148.5 -495zM811 645q0 206 -43.5 297.5t-153.5 91.5q-108 0 -151 -92t-43 -297t43 -297t151 -92q110 0 153.5 91.5t43.5 297.5z" />
    <glyph glyph-name="one.lt" horiz-adv-x="1228" 
d="M182 0v287h301v577h-280v230h59q74 0 123.5 11t82.5 37t52.5 59.5t38.5 88.5h272v-1003h273v-287h-922z" />
    <glyph glyph-name="two.lt" horiz-adv-x="1228" 
d="M621 289h497v-289h-999v250l356 280q156 125 209 192.5t53 156.5q0 65 -33.5 103t-105.5 38q-75 0 -111 -51t-36 -135q0 -60 14 -107l-340 10q-16 82 -16 121q0 206 138.5 331.5t362.5 125.5q230 0 361 -115.5t131 -300.5q0 -66 -15 -122t-37.5 -99t-67.5 -90.5
t-87.5 -84t-114.5 -91.5z" />
    <glyph glyph-name="three.lt" horiz-adv-x="1228" 
d="M778 379q0 68 -47.5 103.5t-124.5 35.5q-59 0 -94 -4v248q20 -4 98 -4q61 0 104.5 35.5t43.5 99.5q0 66 -37.5 103.5t-108.5 37.5q-82 0 -126 -59t-44 -154l-333 15q0 206 139 342.5t375 136.5q225 0 352 -105t127 -280q0 -112 -68.5 -188t-163.5 -89
q126 -22 195.5 -101.5t69.5 -199.5q0 -178 -138 -277.5t-368 -99.5q-252 0 -394.5 126t-142.5 343l342 -10q3 -90 54.5 -134t140.5 -44q64 0 106.5 32t42.5 91z" />
    <glyph glyph-name="four.lt" horiz-adv-x="1228" 
d="M1018 1290v-725h166v-293h-166v-272h-342v272h-617v318l541 700h418zM676 987l-320 -422h320v422z" />
    <glyph glyph-name="five.lt" horiz-adv-x="1228" 
d="M1022 1290v-303h-553q-4 -62 -27 -172q82 64 228 64q216 0 332 -124.5t116 -322.5q0 -211 -138.5 -334t-356.5 -123q-254 0 -387 126.5t-125 351.5l333 -23q1 -83 49 -128.5t130 -45.5q79 0 127.5 47t48.5 129q0 79 -45.5 132.5t-128.5 53.5q-107 0 -162 -81l-334 24
q28 157 54 370t30 359h809z" />
    <glyph glyph-name="six.lt" horiz-adv-x="1228" 
d="M651 1038q-105 0 -167.5 -86t-71.5 -231q45 56 121 87.5t169 31.5q209 0 330 -115.5t121 -302.5q0 -206 -140 -326.5t-364 -120.5q-268 0 -412.5 176.5t-144.5 487.5q0 199 62 349.5t191 238.5t312 88q210 0 337.5 -105.5t146.5 -298.5l-324 -6q-7 65 -50 99t-116 34z
M467 414q0 -74 47 -120t129 -46q85 0 132.5 45.5t47.5 120.5q0 78 -47.5 124t-132.5 46q-82 0 -129 -46.5t-47 -123.5z" />
    <glyph glyph-name="seven.lt" horiz-adv-x="1228" 
d="M739 979h-649v311h1026v-274q-83 -82 -144.5 -161.5t-101.5 -162t-65.5 -158t-38 -169t-16.5 -173t-5 -192.5h-380q4 313 91 538.5t283 440.5z" />
    <glyph glyph-name="eight.lt" horiz-adv-x="1228" 
d="M614 1063q-71 0 -112 -37.5t-41 -105.5q0 -65 41 -100.5t112 -35.5q73 0 115.5 35.5t42.5 100.5q0 68 -42.5 105.5t-115.5 37.5zM614 545q-87 0 -135.5 -40t-48.5 -114t48.5 -114.5t135.5 -40.5t135 40t48 115q0 74 -48 114t-135 40zM614 -25q-252 0 -392 101t-140 276
q0 120 64.5 204t172.5 112q-100 41 -149 109.5t-49 178.5q0 165 136 262t357 97q220 0 356 -97t136 -262q0 -109 -49.5 -178t-149.5 -110q108 -28 173 -112.5t65 -203.5q0 -175 -140 -276t-391 -101z" />
    <glyph glyph-name="nine.lt" horiz-adv-x="1228" 
d="M578 252q105 0 167.5 86t71.5 231q-44 -56 -121 -87t-170 -31q-209 0 -329.5 115t-120.5 302q0 206 140 326.5t364 120.5q268 0 412.5 -176.5t144.5 -487.5q0 -199 -62 -349.5t-191.5 -238.5t-312.5 -88q-210 0 -337 105.5t-146 298.5l324 6q7 -65 50 -99t116 -34z
M762 877q0 73 -47 119t-129 46q-85 0 -132.5 -45t-47.5 -120q0 -78 47.5 -124t132.5 -46q82 0 129 46.5t47 123.5z" />
    <glyph glyph-name="period.tab" horiz-adv-x="614" 
d="M131 0v352h352v-352h-352z" />
    <glyph glyph-name="comma.tab" horiz-adv-x="614" 
d="M131 0v352h352v-329q0 -299 -352 -308v160q73 2 113.5 33.5t40.5 91.5h-154z" />
    <glyph glyph-name="colon.tab" horiz-adv-x="614" 
d="M131 0v352h352v-352h-352zM131 545v352h352v-352h-352z" />
    <glyph glyph-name="semicolon.tab" horiz-adv-x="614" 
d="M131 0v352h352v-329q0 -299 -352 -308v160q73 2 113.5 33.5t40.5 91.5h-154zM131 545v352h352v-352h-352z" />
    <glyph glyph-name="space.tab" horiz-adv-x="614" 
 />
    <glyph glyph-name="percent.lt" horiz-adv-x="1638" 
d="M268 954q0 -93 28 -135.5t85 -42.5t85 42.5t28 135.5t-28 136t-85 43t-85 -43t-28 -136zM45 954q0 163 98.5 262t237.5 99t237.5 -99t98.5 -262t-98.5 -261.5t-237.5 -98.5t-237.5 98.5t-98.5 261.5zM1368 336q0 93 -28 135.5t-85 42.5t-84.5 -42.5t-27.5 -135.5
t27.5 -135.5t84.5 -42.5t85 42.5t28 135.5zM1272 1290l-680 -1290h-227l679 1290h228zM1591 336q0 -163 -98.5 -262t-237.5 -99t-237 99t-98 262t98 261.5t237 98.5t237.5 -98.5t98.5 -261.5z" />
    <glyph glyph-name="perthousand.lt" horiz-adv-x="2457" 
d="M313 954q0 -93 28 -135.5t85 -42.5t85 42.5t28 135.5t-28 136t-85 43t-85 -43t-28 -136zM90 954q0 163 98.5 262t237.5 99t237.5 -99t98.5 -262t-98.5 -261.5t-237.5 -98.5t-237.5 98.5t-98.5 261.5zM1413 336q0 93 -28 135.5t-85 42.5t-84.5 -42.5t-27.5 -135.5
t27.5 -135.5t84.5 -42.5t85 42.5t28 135.5zM1636 336q0 -163 -98.5 -262t-237.5 -99t-237 99t-98 262t98 261.5t237 98.5t237.5 -98.5t98.5 -261.5zM2142 336q0 93 -27.5 135.5t-84.5 42.5t-85 -42.5t-28 -135.5t28 -135.5t85 -42.5t84.5 42.5t27.5 135.5zM2365 336
q0 -163 -98 -262t-237 -99t-237.5 99t-98.5 262t98.5 261.5t237.5 98.5t237 -98.5t98 -261.5zM1317 1290l-680 -1290h-227l680 1290h227z" />
    <glyph glyph-name="plus.lt" horiz-adv-x="1228" 
d="M477 1176h275v-402h403v-276h-403v-402h-275v402h-403v276h403v402z" />
    <glyph glyph-name="minus.lt" horiz-adv-x="1228" 
d="M74 498v276h1081v-276h-1081z" />
    <glyph glyph-name="multiply.lt" horiz-adv-x="1228" 
d="M426 633l-291 289l189 188l288 -291l291 291l189 -188l-291 -289l291 -289l-189 -186l-291 286l-288 -286l-189 186z" />
    <glyph glyph-name="divide.lt" horiz-adv-x="1228" 
d="M74 498v276h1081v-276h-1081zM438 905v334h355v-334h-355zM438 33v332h355v-332h-355z" />
    <glyph glyph-name="equal.lt" horiz-adv-x="1228" 
d="M74 295v250h1081v-250h-1081zM74 737v250h1081v-250h-1081z" />
    <glyph glyph-name="less.lt" horiz-adv-x="1228" 
d="M203 442v377l823 348v-315l-573 -221l573 -221v-316z" />
    <glyph glyph-name="greater.lt" horiz-adv-x="1228" 
d="M1026 819v-377l-823 -348v316l571 221l-571 221v315z" />
    <glyph glyph-name="plusminus.lt" horiz-adv-x="1228" 
d="M475 1262h275v-285h378v-275h-378v-284h-275v284h-377v275h377v285zM98 33v272h1030v-272h-1030z" />
    <glyph glyph-name="lessequal.lt" horiz-adv-x="1228" 
d="M203 33v274h823v-274h-823zM203 621v366l823 273v-304l-549 -151l549 -154v-301z" />
    <glyph glyph-name="greaterequal.lt" horiz-adv-x="1228" 
d="M1026 307v-274h-823v274h823zM1026 987v-366l-823 -271v301l547 154l-547 151v304z" />
    <glyph glyph-name="notequal.lt" horiz-adv-x="1228" 
d="M74 741v242h643l149 236h228l-150 -236h211v-242h-362l-127 -200h489v-242h-643l-147 -236h-230l150 236h-211v242h362l127 200h-489z" />
    <glyph glyph-name="approxequal.lt" horiz-adv-x="1228" 
d="M74 672v252q150 96 291 96q92 0 246.5 -47t246.5 -47q149 0 297 98v-254q-149 -96 -297 -96q-92 0 -246.5 47t-246.5 47q-141 0 -291 -96zM74 260v252q148 98 291 98q92 0 246.5 -48t246.5 -48q149 0 297 98v-254q-149 -96 -297 -96q-92 0 -246.5 47t-246.5 47
q-141 0 -291 -96z" />
    </font>
</defs>
</svg>
